<svg width="325" height="40" viewBox="0 0 325 40" fill="none" xmlns="http://www.w3.org/2000/svg">
<g clip-path="url(#clip0_898_2562)">
<path d="M21.9003 0C22.4792 0.165961 23.0185 0.299051 23.5283 0.503714C25.4746 1.28489 26.8171 2.67974 27.4601 4.63969C28.383 7.45293 27.7637 9.97638 25.6376 12.0532C24.8754 12.7979 23.9197 13.3504 23.0436 13.9789C21.7544 14.904 20.4573 15.8185 19.1681 16.7344C21.264 18.228 23.4169 19.6677 25.4569 21.25C26.7468 22.2504 27.4456 23.6841 27.7339 25.303C28.0303 26.9674 27.7683 28.5303 26.9326 29.9907C25.8805 31.829 24.291 32.9589 22.1922 33.3644C19.8297 33.8207 17.7999 33.1225 15.9029 31.7166C12.9413 29.5216 9.91601 27.4105 6.91384 25.2691C5.56203 24.3049 4.18356 23.3764 2.84875 22.3899C1.3419 21.2762 0.335595 19.8326 0.0324603 17.9303C-0.0108201 17.1658 -0.0108201 16.417 0.0324603 15.6002C0.327771 13.7092 1.25239 12.2487 2.70403 11.1655C4.85229 9.56233 7.06893 8.04892 9.25484 6.4951C10.831 5.37469 12.3966 4.23953 13.9819 3.13195C15.1607 2.30841 16.3341 1.47028 17.5682 0.734432C18.1685 0.376546 18.9024 0.237895 19.5758 0C20.333 0 21.0901 0 21.9003 0ZM6.70369 23.6476C10.2384 26.1598 13.7716 28.6741 17.3085 31.1834C18.6545 32.1384 20.1238 32.5759 21.7914 32.244C24.344 31.736 26.2956 29.8772 26.576 27.1721C26.8093 24.9213 25.9758 23.072 24.0779 21.7267C19.5751 18.535 15.0778 15.3357 10.5845 12.1307C9.10009 11.0719 7.46519 10.7571 5.68752 11.0935C3.39246 11.5278 1.25262 13.8999 1.12696 16.1854C1.00837 18.3423 1.82261 20.1018 3.56609 21.4104C4.57149 22.165 5.61038 22.876 6.70369 23.6476ZM8.21326 8.7477C7.77081 9.06899 7.32835 9.39034 6.77222 9.79418C7.00286 9.83025 7.07105 9.85244 7.13822 9.84975C8.75586 9.78541 10.1392 10.3751 11.4217 11.2985C13.6158 12.8783 15.8272 14.4346 18.0279 15.9983C18.0954 15.9662 18.1502 15.9491 18.1945 15.9176C20.2622 14.4504 22.3581 13.02 24.3882 11.5034C26.6941 9.78076 27.1569 6.8367 26.058 4.44854C24.5145 1.09414 20.1609 0.259068 17.3723 2.23904C14.3403 4.39184 11.3115 6.54905 8.21326 8.7477Z" fill="#101011"/>
<path d="M41.4195 0C42.079 0.207724 42.7432 0.320907 43.2805 0.642415C44.4808 1.36081 45.6362 2.15767 46.7771 2.96796C49.7955 5.11168 52.8017 7.27228 55.8015 9.44152C56.9273 10.2557 58.0686 11.0591 59.1176 11.9645C60.173 12.8754 60.6742 14.1395 60.9085 15.4833C61.3654 18.1035 60.5479 20.329 58.557 22.0682C57.5181 22.9758 56.325 23.7109 55.1962 24.5166C52.9413 26.1259 50.6847 27.7328 48.425 29.3357C46.8645 30.4425 45.3268 31.5848 43.722 32.6251C42.8675 33.1792 41.8555 33.4204 40.8183 33.4839C39.4892 33.5653 38.2002 33.4009 37.0108 32.7881C34.9039 31.7024 33.5772 29.9642 33.2488 27.6612C32.8184 24.6417 33.9719 22.2378 36.5396 20.495C38.3192 19.2871 40.0503 18.0092 41.8276 16.7452C40.1372 15.5296 38.4981 14.283 36.7878 13.141C35.292 12.1423 34.084 10.9423 33.5414 9.21369C32.8303 6.9482 33.0808 4.78859 34.4968 2.8316C35.4594 1.50122 36.7416 0.598677 38.3647 0.207155C38.5598 0.160081 38.758 0.125459 38.9701 0.0425329C39.7792 1.12009e-07 40.5728 1.11979e-07 41.4195 0ZM59.797 16.7408C59.7955 14.8658 59.0826 13.2906 57.5623 12.1918C52.8795 8.80715 48.1583 5.47493 43.4511 2.12351C42.1057 1.16553 40.5522 0.998389 39.0222 1.30273C36.6076 1.78305 35.0421 3.3352 34.5178 5.71072C34.0001 8.05656 34.7607 10.0585 36.6914 11.5552C37.6098 12.2669 38.5793 12.9138 39.5267 13.5887C43.2245 16.2229 46.9038 18.8832 50.6289 21.4791C52.5278 22.8023 54.605 22.9193 56.6657 21.8603C58.6868 20.8217 59.7178 19.1099 59.797 16.7408ZM38.4407 32.0997C38.9503 32.1871 39.458 32.335 39.9697 32.3504C41.3798 32.3927 42.6443 31.9448 43.7869 31.1273C46.5244 29.1691 49.2686 27.2204 52.0101 25.2677C52.6752 24.794 53.3403 24.3202 54.1221 23.7632C52.6218 23.6618 51.3227 23.3606 50.1927 22.5941C48.8933 21.7126 47.625 20.7859 46.3442 19.8772C45.2043 19.0685 44.0659 18.2579 42.9353 17.4541C42.5068 17.7591 42.1267 18.0285 41.7478 18.2996C40.0129 19.5405 38.2534 20.7493 36.5504 22.0319C34.6908 23.4324 33.8669 26.0745 34.5804 28.1652C35.2222 30.046 36.463 31.3687 38.4407 32.0997Z" fill="#10110F"/>
<path d="M76.3515 5.28374C74.2638 8.13042 74.5503 12.5007 77.4064 14.8886C79.0419 16.2561 80.932 16.7323 83.0764 16.4328C84.6181 16.2174 85.8888 15.5972 86.9055 14.464C87.7879 13.4807 88.1953 12.2951 88.3242 10.9152C87.2179 10.9152 86.1504 10.9152 85.0831 10.9152C84.0249 10.9152 82.9668 10.9152 81.868 10.9152C81.868 10.2625 81.868 9.61882 81.868 8.93598C84.685 8.93598 87.5284 8.93598 90.4196 8.93598C90.7423 11.2929 90.3159 13.4934 88.8581 15.4524C87.5162 17.2553 85.6309 18.1954 83.455 18.5207C80.7942 18.9184 78.2944 18.3794 76.1832 16.6849C74.4937 15.3288 73.3794 13.5793 72.9623 11.4045C72.5439 9.22186 72.792 7.15842 73.8326 5.20427C75.0743 2.87255 77.0055 1.33903 79.5982 0.729928C81.9342 0.181152 84.2382 0.381679 86.381 1.51651C87.128 1.91215 87.777 2.48873 88.4838 2.99203C87.8632 3.59044 87.3526 4.08278 86.8327 4.58416C85.9412 3.65563 84.8273 3.02728 83.4912 2.70812C82.0266 2.35829 80.652 2.52834 79.2741 3.05017C78.08 3.50234 77.1268 4.23976 76.3515 5.28374Z" fill="#1E1E1E"/>
<path d="M262.704 3.70545C263.441 2.68593 264.45 2.06803 265.505 1.51662C267.138 0.662537 268.914 0.464864 270.706 0.642281C272.753 0.844944 274.584 1.61121 276.005 3.1177C275.469 3.62625 274.948 4.12284 274.402 4.64165C273.593 3.71563 272.448 3.12479 271.113 2.81969C269.032 2.34396 267.171 2.81741 265.462 3.99974C264.042 4.98176 263.217 6.39355 262.893 8.02674C262.375 10.6372 262.987 13.002 265.012 14.8312C267.393 16.9818 270.96 17.1489 273.533 15.4294C274.989 14.4555 275.745 13.0303 275.907 11.2981C275.915 11.2078 275.944 11.1194 275.972 10.99C273.869 10.99 271.763 10.99 269.628 10.99C269.628 10.3092 269.628 9.67032 269.628 9.00446C272.423 9.00446 275.209 9.00446 278.021 9.00446C278.356 10.8731 278.111 12.6713 277.239 14.3324C276.036 16.6231 274.084 17.9626 271.515 18.4529C269.313 18.8731 267.218 18.6187 265.251 17.5548C262.724 16.1885 261.168 14.1081 260.708 11.2745C260.293 8.71484 260.727 6.32956 262.283 4.19521C262.402 4.03293 262.547 3.89024 262.704 3.70545Z" fill="#1E1E1E"/>
<path d="M153.754 16.6351C153.754 11.369 153.754 6.15852 153.754 0.882466C154.392 0.882466 155.006 0.882466 155.62 0.882466C156.881 0.882466 158.143 0.860381 159.404 0.88765C161.286 0.928369 163.07 1.35311 164.621 2.45564C166.351 3.68666 167.344 5.39789 167.762 7.44842C168.131 9.25227 168.052 11.0252 167.447 12.7799C166.468 15.6184 164.445 17.2984 161.545 17.958C160.689 18.1528 159.782 18.172 158.897 18.19C157.205 18.2243 155.512 18.1999 153.754 18.1999C153.754 17.6814 153.754 17.1861 153.754 16.6351ZM163.403 4.22768C161.149 2.5512 158.544 3.08766 156.055 3.00927C156.055 7.4507 156.055 11.8151 156.055 16.0771C157.462 16.0771 158.829 16.1299 160.19 16.0627C161.621 15.992 162.921 15.4621 163.919 14.4393C165.782 12.5324 166.004 10.1809 165.564 7.71123C165.315 6.31538 164.552 5.19282 163.403 4.22768Z" fill="#1E1E1E"/>
<path d="M206.139 18.2083C205.569 18.2083 205.057 18.2083 204.517 18.2083C204.517 12.4168 204.517 6.6601 204.517 0.874023C205.243 0.874023 205.965 0.874023 206.717 0.874023C206.717 6.63716 206.717 12.3938 206.717 18.2083C206.54 18.2083 206.369 18.2083 206.139 18.2083Z" fill="#1E1E1E"/>
<path d="M131.601 11.1691C131.601 7.71124 131.601 4.30951 131.601 0.874023C132.339 0.874023 133.053 0.874023 133.801 0.874023C133.801 6.63614 133.801 12.4053 133.801 18.2083C133.097 18.2083 132.383 18.2083 131.601 18.2083C131.601 15.8856 131.601 13.5554 131.601 11.1691Z" fill="#1E1E1E"/>
<path d="M59.7117 16.7983C59.6326 19.1147 58.6039 20.8268 56.5873 21.8656C54.5312 22.9249 52.4585 22.8079 50.5637 21.4843C46.8469 18.8879 43.1758 16.227 39.4862 13.5922C38.5408 12.9172 37.5734 12.2701 36.6571 11.5581C34.7307 10.0612 33.9718 8.05878 34.4884 5.71242C35.0115 3.33636 36.5735 1.78386 38.9828 1.30343C40.5094 0.99902 42.0594 1.1662 43.4019 2.12439C48.0987 5.47657 52.8095 8.80955 57.4819 12.1949C58.9989 13.2941 59.7102 14.8696 59.7117 16.7983Z" fill="#34A853"/>
<path d="M8.22027 8.73091C11.2771 6.54792 14.2986 4.38473 17.3233 2.22597C20.1052 0.240518 24.4482 1.07789 25.9881 4.44159C27.0843 6.83636 26.6226 9.78857 24.3222 11.5161C22.2971 13.0369 20.2062 14.4712 18.1435 15.9424C18.0993 15.974 18.0446 15.9911 17.9772 16.0233C15.7819 14.4553 13.5759 12.8947 11.387 11.3105C10.1077 10.3846 8.72763 9.79322 7.1139 9.85783C7.04689 9.86043 6.97886 9.83823 6.74878 9.80199C7.30357 9.39707 7.74495 9.07483 8.22027 8.73091Z" fill="#E94335"/>
<path d="M323.347 7.36484C324.395 8.65407 324.931 10.0788 324.964 11.7053C324.994 13.1966 324.773 14.6211 323.946 15.8904C322.95 17.422 321.572 18.3398 319.689 18.5668C318.001 18.7704 316.586 18.3064 315.327 17.2421C315.139 17.0831 314.997 16.8714 314.775 16.6183C314.775 18.9376 314.775 21.182 314.775 23.4523C314.041 23.4523 313.355 23.4523 312.643 23.4523C312.643 17.5637 312.643 11.6905 312.643 5.7898C313.303 5.7898 313.952 5.7898 314.648 5.7898C314.648 6.36588 314.648 6.93239 314.648 7.41173C315.254 6.95571 315.819 6.39563 316.496 6.04606C318.452 5.03484 320.392 5.22572 322.231 6.38649C322.634 6.64055 322.959 7.01589 323.347 7.36484ZM317.205 7.77327C316.656 8.22472 316.014 8.60174 315.578 9.142C314.405 10.5958 314.378 13.3643 315.623 14.9941C317.248 17.1199 320.251 17.2922 321.883 14.9543C323.129 13.1714 323.134 11.2494 322.07 9.35999C321.131 7.6914 319.098 6.961 317.205 7.77327Z" fill="#1E1E1E"/>
<path d="M135.057 13.8484C134.553 11.7226 134.88 9.78057 136.047 7.98627C137.948 5.06626 141.947 4.68248 144.546 6.46594C145.984 7.45351 146.695 8.91273 146.877 10.6248C146.924 11.0641 146.941 11.5067 146.995 11.945C147.052 12.4018 146.856 12.5154 146.414 12.5128C143.516 12.4957 140.62 12.5041 137.723 12.5041C137.536 12.5041 137.35 12.5041 137.17 12.5041C136.896 13.6468 137.91 15.7439 139.747 16.396C141.539 17.0324 143.425 16.7135 144.887 14.4098C145.398 14.6567 145.927 14.8885 146.427 15.1713C146.541 15.2357 146.654 15.5441 146.597 15.6258C145.496 17.2207 144.147 18.4006 142.061 18.5994C140.69 18.7302 139.397 18.598 138.2 17.9855C136.522 17.1266 135.485 15.7262 135.057 13.8484ZM138.752 10.7054C140.694 10.7054 142.637 10.7054 144.577 10.7054C144.644 9.11139 143.245 7.65318 141.746 7.45367C139.05 7.09465 137.546 8.83802 137.228 10.7054C137.704 10.7054 138.172 10.7054 138.752 10.7054Z" fill="#1E1E1E"/>
<path d="M221.828 11.4797C221.829 9.59184 221.829 7.76013 221.831 5.92838C221.831 5.89338 221.846 5.8584 221.86 5.79056C222.502 5.79056 223.151 5.79056 223.843 5.79056C223.843 6.35197 223.843 6.92076 223.843 7.49923C224.287 7.10297 224.679 6.70447 225.12 6.36985C226.461 5.35192 227.998 5.20641 229.575 5.57126C231.952 6.12124 233.744 8.27878 234.054 10.6721C234.249 12.1815 234.185 13.6481 233.568 15.0267C232.691 16.9887 231.23 18.2571 228.992 18.5606C227.163 18.8087 225.633 18.2938 224.327 17.0395C224.174 16.8934 224.056 16.7133 223.976 16.6155C223.976 17.7186 223.976 18.8625 223.976 20.0064C223.976 21.1441 223.976 22.2818 223.976 23.4523C223.264 23.4523 222.578 23.4523 221.828 23.4523C221.828 19.4833 221.828 15.5095 221.828 11.4797ZM225.906 16.0328C227.899 17.2797 230.08 16.566 231.246 14.7298C231.89 13.7143 232.094 12.5678 231.909 11.3351C231.731 10.1387 231.305 9.13188 230.366 8.32967C228.624 6.84195 226.101 7.20357 224.776 9.11963C224.001 10.2376 223.724 11.4691 223.957 12.8474C224.18 14.1627 224.727 15.2222 225.906 16.0328Z" fill="#1E1E1E"/>
<path d="M107.63 6.33353C110.278 4.90829 113.793 5.40327 115.72 7.72574C116.68 8.88217 117.186 10.214 117.22 11.7468C117.252 13.2212 117.018 14.5977 116.196 15.8398C115.098 17.4992 113.561 18.3957 111.537 18.6021C109.441 18.8162 107.654 18.2386 106.211 16.7746C105.083 15.6309 104.481 14.2099 104.461 12.5778C104.446 11.4447 104.519 10.3461 104.997 9.27678C105.503 8.14307 106.255 7.25194 107.274 6.55788C107.38 6.48601 107.483 6.41153 107.63 6.33353ZM106.834 10.3336C106.819 10.4409 106.813 10.5502 106.788 10.6551C106.34 12.5452 106.558 14.2788 108.094 15.6467C109.963 17.3111 112.696 16.9714 114.145 15.0341C115.282 13.5136 115.397 11.7712 114.677 10.086C113.916 8.30312 112.165 7.18352 109.921 7.65138C108.391 7.97042 107.511 8.95553 106.834 10.3336Z" fill="#1E1E1E"/>
<path d="M95.6812 5.77743C97.6775 5.31767 99.5441 5.46582 101.213 6.63C102.772 7.71658 103.674 9.19991 103.937 11.0936C104.148 12.6025 103.964 14.0233 103.23 15.3426C102.189 17.2145 100.634 18.3528 98.3977 18.5933C97.0494 18.7383 95.7759 18.5931 94.606 17.9945C92.7368 17.0375 91.6057 15.4841 91.2388 13.4318C90.9081 11.5807 91.1875 9.83481 92.2528 8.2409C93.0162 7.09682 94.0616 6.31565 95.382 5.88525C95.4676 5.85713 95.5496 5.81492 95.6812 5.77743ZM94.8674 15.7432C95.3865 15.9946 95.8831 16.3096 96.4275 16.4854C97.9065 16.9632 99.207 16.5817 100.346 15.5742C101.463 14.5875 101.831 13.3453 101.781 11.9009C101.731 10.4376 101.219 9.24859 100.026 8.34216C98.2012 6.95541 95.5686 7.38902 94.2185 9.16412C92.7512 11.0915 92.9711 14.0493 94.8674 15.7432Z" fill="#1E1E1E"/>
<path d="M235.603 8.36414C236.77 6.56513 238.369 5.58935 240.535 5.53781C242.047 5.50184 243.441 5.8559 244.607 6.79599C245.744 7.71321 246.361 8.96984 246.596 10.3825C246.712 11.0806 246.712 11.7972 246.769 12.5604C245.037 12.5604 243.395 12.5604 241.752 12.5604C240.126 12.5604 238.5 12.5604 236.877 12.5604C236.752 13.9934 237.785 15.7832 239.439 16.3982C240.926 16.9511 242.987 16.9843 244.648 14.4407C245.25 14.7375 245.854 15.0353 246.456 15.3319C245.72 17.0966 243.703 18.4379 241.795 18.6037C240.422 18.7229 239.125 18.6056 237.93 17.9948C236.198 17.1094 235.17 15.6652 234.772 13.7795C234.43 12.1549 234.57 10.5876 235.235 9.06506C235.335 8.83662 235.464 8.62033 235.603 8.36414ZM239.736 7.64672C238.069 8.04434 237.388 9.28027 236.93 10.76C239.463 10.76 241.941 10.76 244.411 10.76C244.286 9.55248 243.698 8.63909 242.676 7.98906C241.783 7.42168 240.791 7.52627 239.736 7.64672Z" fill="#1E1E1E"/>
<path d="M169.634 15.9407C168.873 14.5957 168.483 13.2022 168.589 11.7002C168.756 9.32877 169.715 7.3621 171.891 6.17687C173.067 5.53587 174.388 5.42847 175.764 5.62231C177.165 5.81959 178.275 6.40902 179.2 7.41235C180.069 8.35434 180.503 9.47418 180.636 10.72C180.675 11.0811 180.736 11.4417 180.745 11.8035C180.763 12.5408 180.75 12.5412 180.022 12.5412C177.163 12.5413 174.305 12.5413 171.446 12.5413C171.262 12.5413 171.077 12.5413 170.898 12.5413C170.765 14.0976 171.832 15.8129 173.533 16.3953C175.304 17.0012 177.047 16.7762 178.636 14.459C179.229 14.7224 179.821 14.9864 180.436 15.2604C180.16 16.2668 179.4 16.8976 178.668 17.4884C177.494 18.4364 176.034 18.7118 174.563 18.6324C172.638 18.5287 170.992 17.7848 169.854 16.1736C169.802 16.0988 169.722 16.0421 169.634 15.9407ZM171.837 10.7631C174.009 10.7631 176.18 10.7631 178.353 10.7631C178.293 9.07213 177.011 7.73493 175.351 7.54582C172.776 7.25242 171.334 8.84294 170.989 10.7631C171.239 10.7631 171.483 10.7631 171.837 10.7631Z" fill="#1E1E1E"/>
<path d="M293.111 5.53534C295.34 5.67332 296.986 6.68032 298.17 8.49138C298.89 9.5932 299.165 10.8433 299.144 12.0876C299.101 14.6508 298.088 16.7809 295.685 17.9904C294.548 18.5631 293.306 18.7503 291.984 18.5907C290.484 18.4097 289.203 17.8543 288.177 16.7999C287.041 15.632 286.467 14.1964 286.392 12.5546C286.325 11.1027 286.555 9.72689 287.325 8.48206C288.289 6.9222 289.674 5.93478 291.518 5.65276C292.025 5.57514 292.543 5.57242 293.111 5.53534ZM292.524 7.53984C291.123 7.55424 290.104 8.26278 289.318 9.33915C288.187 10.8878 288.195 13.4742 289.471 15.076C291.007 17.0052 293.682 17.248 295.511 15.5842C296.614 14.5803 296.956 13.3058 296.953 11.8555C296.95 9.56439 295.009 7.3436 292.524 7.53984Z" fill="#1E1E1E"/>
<path d="M196.471 16.4969C197.723 16.8508 198.899 16.7498 199.91 15.9895C200.46 15.5766 200.879 14.9953 201.383 14.4624C201.933 14.7354 202.534 15.0334 203.132 15.3304C202.396 17.0988 200.392 18.4372 198.494 18.6036C197.129 18.7231 195.838 18.6055 194.649 17.9945C192.926 17.1089 191.91 15.6626 191.505 13.7781C191.156 12.1494 191.262 10.5709 191.972 9.06371C192.831 7.24008 194.177 5.98706 196.275 5.63995C197.78 5.39108 199.186 5.57623 200.537 6.30331C201.999 7.09068 202.772 8.36131 203.15 9.87624C203.359 10.717 203.376 11.6045 203.489 12.545C200.112 12.545 196.846 12.545 193.581 12.545C193.558 14.4506 194.803 16.0351 196.471 16.4969ZM194.793 8.60184C194.206 9.19991 193.865 9.92286 193.658 10.7504C196.151 10.7504 198.614 10.7504 201.077 10.7516C200.875 9.1455 200.053 7.99027 198.421 7.62726C197.121 7.33789 195.835 7.46414 194.793 8.60184Z" fill="#1E1E1E"/>
<path d="M128.341 22.2732C127.365 23.1485 126.254 23.6582 124.992 23.8126C122.408 24.129 119.869 23.5238 118.462 20.9077C118.369 20.7348 118.321 20.5383 118.245 20.3359C118.882 20.0735 119.53 19.8064 120.193 19.5327C120.423 19.8637 120.637 20.219 120.896 20.5393C121.773 21.6246 122.915 22.0034 124.307 21.8778C125.204 21.7968 125.981 21.5315 126.64 20.9415C127.42 20.2431 127.676 19.2935 127.795 18.315C127.864 17.735 127.807 17.1399 127.807 16.4901C126.743 17.7971 125.464 18.4665 123.804 18.5242C122.202 18.5799 120.823 18.1135 119.673 17.0699C118.757 16.2379 118.172 15.1517 117.887 13.9483C117.559 12.5615 117.589 11.172 117.985 9.78774C118.568 7.74896 120.409 5.92844 122.518 5.62101C123.845 5.42774 125.088 5.53557 126.233 6.2125C126.799 6.54686 127.283 7.01663 127.806 7.42701C127.806 6.95945 127.806 6.43254 127.806 5.88531C128.487 5.88531 129.12 5.88531 129.838 5.88531C129.838 6.0658 129.838 6.26089 129.838 6.45597C129.838 10.4813 129.844 14.5068 129.835 18.5322C129.831 19.8715 129.365 21.047 128.465 22.0506C128.419 22.1023 128.398 22.1768 128.341 22.2732ZM127.083 14.8035C127.611 13.8407 127.895 12.8184 127.804 11.7179C127.68 10.218 127.221 8.92989 125.825 8.05703C124.245 7.06985 121.784 7.48695 120.695 9.11946C119.97 10.2066 119.742 11.3784 119.895 12.6728C120.026 13.7825 120.413 14.714 121.222 15.5137C122.925 17.197 125.763 16.7971 127.083 14.8035Z" fill="#1E1E1E"/>
<path d="M254.039 5.53644C254.985 5.8549 254.985 5.8549 254.985 6.87113C254.985 7.27403 254.985 7.67692 254.985 8.04641C254.366 7.9469 253.798 7.82681 253.225 7.76907C251.895 7.63524 250.678 8.76022 250.268 9.82317C250.045 10.3998 249.936 11.0501 249.925 11.6698C249.884 13.8384 249.909 16.008 249.909 18.2083C249.196 18.2083 248.512 18.2083 247.796 18.2083C247.796 14.1152 247.796 10.0225 247.796 5.89919C248.443 5.89919 249.09 5.89919 249.782 5.89919C249.782 6.49968 249.782 7.09988 249.782 7.82056C250.75 6.10674 252.201 5.50586 254.039 5.53644Z" fill="#1E1E1E"/>
<path d="M208.104 13.9509C208.027 13.2727 207.886 12.6417 207.891 12.0119C207.904 10.2331 208.471 8.61675 209.723 7.34077C210.643 6.40341 211.791 5.81233 213.149 5.61962C214.47 5.43205 215.714 5.54677 216.94 6.0729C218.418 6.7072 219.408 7.80492 220.071 9.22371C220.591 10.338 220.72 11.5321 220.627 12.7386C220.521 14.1128 220.029 15.3435 219.143 16.4302C218.222 17.5604 217.038 18.2664 215.639 18.517C212.504 19.0793 209.478 17.8144 208.215 14.3006C208.179 14.1997 208.142 14.0992 208.104 13.9509ZM218.509 11.7374C218.434 11.3678 218.375 10.9946 218.283 10.6293C217.909 9.13709 216.925 8.12514 215.51 7.68191C214.043 7.22257 212.602 7.50679 211.456 8.60544C210.281 9.73092 209.884 11.1323 210.106 12.7461C210.34 14.4294 211.132 15.6355 212.732 16.3434C214.343 17.0557 216.267 16.4648 217.27 15.3732C218.181 14.382 218.521 13.1647 218.509 11.7374Z" fill="#1E1E1E"/>
<path d="M281.835 10.012C281.759 10.4644 281.623 10.8705 281.618 11.2779C281.596 13.3975 281.608 15.5175 281.608 17.6373C281.608 17.8191 281.608 18.0009 281.608 18.2083C280.883 18.2083 280.197 18.2083 279.486 18.2083C279.486 14.0938 279.486 9.99517 279.486 5.87324C280.141 5.87324 280.775 5.87324 281.457 5.87324C281.457 6.45961 281.457 7.06374 281.457 7.76893C282.743 5.76945 284.471 5.16481 286.675 5.74599C286.675 6.53163 286.675 7.2897 286.675 8.05695C286.166 7.95118 285.679 7.80217 285.182 7.75541C283.674 7.61356 282.735 8.45017 282.015 9.6298C281.95 9.73816 281.897 9.85387 281.835 10.012Z" fill="#1E1E1E"/>
<path d="M188.366 9.94605C188.917 8.55564 189.466 7.20983 190.03 5.82666C190.735 5.82666 191.502 5.82666 192.339 5.82666C191.873 6.9384 191.413 8.01938 190.969 9.10713C190.019 11.4318 189.08 13.7605 188.133 16.0861C187.875 16.7179 187.619 17.3506 187.331 17.9687C187.281 18.0771 187.079 18.1678 186.941 18.1758C186.491 18.2016 186.033 18.1394 185.59 18.1979C185.099 18.2624 184.907 18.0223 184.752 17.6354C183.778 15.2048 182.8 12.7755 181.812 10.3505C181.229 8.92193 180.624 7.50234 180.033 6.07706C180.007 6.01355 180.022 5.93359 180.015 5.83397C180.794 5.83397 181.557 5.83397 182.334 5.83397C183.599 9.08037 184.866 12.3338 186.146 15.6201C186.897 13.7147 187.63 11.8526 188.366 9.94605Z" fill="#1E1E1E"/>
<path d="M300.173 14.1488C300.173 11.3479 300.173 8.60029 300.173 5.82666C300.9 5.82666 301.589 5.82666 302.328 5.82666C302.328 6.28116 302.328 6.72212 302.328 7.16309C302.328 9.18981 302.296 11.2174 302.344 13.243C302.362 14.0062 302.425 14.7906 302.903 15.4729C303.641 16.5264 304.912 16.7889 305.932 16.5873C307.678 16.2424 308.812 14.4763 308.799 12.8899C308.778 10.5494 308.793 8.2086 308.793 5.83427C309.543 5.83427 310.269 5.83427 311.028 5.83427C311.028 9.92565 311.028 14.0249 311.028 18.1582C310.351 18.1582 309.663 18.1582 308.929 18.1582C308.929 17.6776 308.929 17.1858 308.929 16.6015C307.057 18.6729 304.865 19.1829 302.4 18.0715C300.774 17.3388 300.36 15.8031 300.173 14.1488Z" fill="#1E1E1E"/>
<path d="M6.70129 23.6014C5.6476 22.8494 4.6135 22.1376 3.61273 21.3822C1.87729 20.0722 1.0668 18.3107 1.18484 16.1514C1.30992 13.8634 3.4399 11.4887 5.72438 11.0539C7.49388 10.7171 9.12125 11.0323 10.5988 12.0923C15.0714 15.3007 19.548 18.5036 24.0301 21.6989C25.9191 23.0456 26.7488 24.8969 26.5166 27.1503C26.2376 29.8584 24.2949 31.7193 21.7541 32.2278C20.0941 32.5601 18.6317 32.1221 17.2918 31.166C13.7712 28.654 10.2542 26.1369 6.70129 23.6014Z" fill="#4285F3"/>
<path d="M38.3845 32.054C36.4533 31.3562 35.2212 30.0372 34.5838 28.1616C33.8753 26.0766 34.6934 23.4419 36.5402 22.0451C38.2313 20.7661 39.9786 19.5606 41.7014 18.3231C42.0777 18.0529 42.4552 17.7841 42.8807 17.48C44.0035 18.2815 45.134 19.09 46.266 19.8964C47.5379 20.8025 48.7973 21.7267 50.0879 22.6058C51.21 23.3702 52.5 23.6706 53.99 23.7717C53.2135 24.3271 52.5531 24.7996 51.8926 25.2721C49.1701 27.2193 46.4448 29.1628 43.7265 31.1156C42.5918 31.9307 41.336 32.3773 39.9358 32.3352C39.4276 32.3199 38.9234 32.1724 38.3845 32.054Z" fill="#F8AA00"/>
<path d="M78.6398 36.2488C78.0246 36.2488 77.4515 36.142 76.9209 35.9281C76.3979 35.7067 75.9403 35.4012 75.548 35.0118C75.1636 34.6148 74.8636 34.1566 74.6482 33.6373C74.4329 33.1181 74.3252 32.5606 74.3252 31.965C74.3252 31.3694 74.4329 30.812 74.6482 30.2927C74.8636 29.7735 75.1636 29.3191 75.548 28.9297C75.9403 28.5326 76.3979 28.2272 76.9209 28.0133C77.4515 27.7919 78.0246 27.6812 78.6398 27.6812C79.2551 27.6812 79.8242 27.7919 80.3472 28.0133C80.8702 28.2272 81.3277 28.5326 81.72 28.9297C82.1122 29.3191 82.416 29.7735 82.6314 30.2927C82.8468 30.812 82.9544 31.3694 82.9544 31.965C82.9544 32.5606 82.8468 33.1181 82.6314 33.6373C82.416 34.1566 82.1122 34.6148 81.72 35.0118C81.3277 35.4012 80.8702 35.7067 80.3472 35.9281C79.8242 36.142 79.2551 36.2488 78.6398 36.2488ZM78.6398 34.7827C79.1551 34.7827 79.6204 34.6644 80.0357 34.4276C80.451 34.191 80.7818 33.8626 81.0278 33.4426C81.2739 33.015 81.397 32.5225 81.397 31.965C81.397 31.4 81.2739 30.9075 81.0278 30.4874C80.7818 30.0675 80.451 29.7391 80.0357 29.5024C79.6204 29.2657 79.1551 29.1473 78.6398 29.1473C78.1322 29.1473 77.6707 29.2657 77.2554 29.5024C76.8401 29.7391 76.5094 30.0675 76.2633 30.4874C76.0173 30.9075 75.8941 31.4 75.8941 31.965C75.8941 32.5225 76.0173 33.015 76.2633 33.4426C76.5094 33.8626 76.8401 34.191 77.2554 34.4276C77.6707 34.6644 78.1322 34.7827 78.6398 34.7827ZM83.6222 36.0656V30.224H85.0412V30.957H85.1335C85.3104 30.6745 85.5603 30.4531 85.8833 30.2927C86.2064 30.1247 86.5563 30.0407 86.9331 30.0407C87.6561 30.0407 88.1983 30.2583 88.5598 30.6936C88.9213 31.1288 89.102 31.7092 89.102 32.4346V36.0656H87.5907V32.6179C87.5907 32.2361 87.4908 31.9459 87.2908 31.7474C87.0985 31.5412 86.8332 31.4381 86.4948 31.4381C86.2179 31.4381 85.9756 31.5145 85.768 31.6672C85.5681 31.8123 85.4103 32.0108 85.295 32.2628C85.1874 32.5072 85.1335 32.7821 85.1335 33.0875V36.0656H83.6222ZM96.1742 36.2488C95.5667 36.2488 94.998 36.142 94.4672 35.9281C93.9444 35.7067 93.4866 35.4012 93.0945 35.0118C92.7016 34.6224 92.3942 34.168 92.1716 33.6488C91.9562 33.1296 91.8481 32.5683 91.8481 31.965C91.8481 31.3618 91.9562 30.8005 92.1716 30.2812C92.3942 29.762 92.7016 29.3076 93.0945 28.9182C93.4866 28.5288 93.9444 28.2272 94.4672 28.0133C94.998 27.7919 95.5667 27.6812 96.1742 27.6812C96.6131 27.6812 97.0169 27.7347 97.3855 27.8415C97.755 27.9408 98.093 28.0897 98.4012 28.2882C98.7167 28.4868 99.0051 28.7312 99.2665 29.0213L98.1705 30.0751C98.0083 29.8842 97.828 29.72 97.6279 29.5825C97.436 29.4451 97.2206 29.3382 96.9817 29.2618C96.7438 29.1855 96.4779 29.1473 96.1859 29.1473C95.6704 29.1473 95.2017 29.2657 94.7781 29.5024C94.3635 29.7314 94.0328 30.056 93.7867 30.476C93.5407 30.896 93.4172 31.3923 93.4172 31.965C93.4172 32.5301 93.5407 33.0265 93.7867 33.454C94.0328 33.8741 94.3635 34.2024 94.7781 34.4391C95.2017 34.6682 95.6704 34.7827 96.1859 34.7827C96.6474 34.7827 97.0547 34.6873 97.4089 34.4964C97.7704 34.3055 98.0894 34.042 98.3661 33.706L99.4738 34.7484C99.2043 35.0691 98.9005 35.344 98.5626 35.5731C98.2237 35.7945 97.8551 35.9625 97.4549 36.077C97.0547 36.1916 96.6284 36.2488 96.1742 36.2488ZM101.661 36.2488C101.246 36.2488 100.876 36.1687 100.553 36.0083C100.238 35.8403 99.9884 35.6074 99.8036 35.3096C99.6189 35.0118 99.5269 34.6682 99.5269 34.2787C99.5269 33.8741 99.6306 33.5266 99.8379 33.2364C100.053 32.9463 100.338 32.721 100.692 32.5606C101.054 32.4003 101.453 32.3201 101.892 32.3201C102.13 32.3201 102.345 32.3354 102.538 32.3659C102.737 32.3888 102.915 32.4194 103.068 32.4575C103.222 32.4957 103.349 32.5377 103.449 32.5835V32.3315C103.449 32.0185 103.329 31.7627 103.091 31.5641C102.853 31.3579 102.526 31.2548 102.111 31.2548C101.834 31.2548 101.565 31.3198 101.303 31.4496C101.049 31.5718 100.838 31.7359 100.669 31.9421L99.7 31.1861C99.8919 30.9418 100.115 30.7356 100.369 30.5676C100.623 30.392 100.903 30.2622 101.211 30.1782C101.519 30.0865 101.841 30.0407 102.18 30.0407C103.08 30.0407 103.765 30.2469 104.233 30.6592C104.703 31.0716 104.937 31.6749 104.937 32.469V36.0656H103.449V35.47H103.356C103.249 35.6074 103.115 35.7373 102.953 35.8594C102.791 35.9739 102.603 36.0656 102.388 36.1343C102.172 36.2107 101.93 36.2488 101.661 36.2488ZM102.019 35.0805C102.326 35.0805 102.584 35.0156 102.791 34.8858C103.007 34.7484 103.168 34.5728 103.276 34.3589C103.392 34.1451 103.449 33.9199 103.449 33.6831C103.28 33.5992 103.088 33.5342 102.872 33.4884C102.657 33.435 102.438 33.4082 102.215 33.4082C101.768 33.4082 101.461 33.4922 101.292 33.6602C101.122 33.8283 101.038 34.0344 101.038 34.2787C101.038 34.5078 101.119 34.6988 101.28 34.8514C101.449 35.0042 101.695 35.0805 102.019 35.0805ZM105.729 36.0656V30.224H107.147V30.957H107.239C107.363 30.7738 107.512 30.6134 107.69 30.476C107.866 30.3385 108.067 30.2317 108.289 30.1552C108.52 30.0789 108.766 30.0407 109.027 30.0407C109.458 30.0407 109.824 30.14 110.123 30.3385C110.431 30.5371 110.647 30.7815 110.769 31.0716C110.947 30.7891 111.197 30.5485 111.519 30.35C111.85 30.1438 112.257 30.0407 112.742 30.0407C113.427 30.0407 113.938 30.2469 114.276 30.6592C114.622 31.0716 114.795 31.6214 114.795 32.3086V36.0656H113.296V32.5835C113.296 32.2094 113.207 31.9269 113.031 31.7359C112.854 31.5374 112.615 31.4381 112.315 31.4381C112.054 31.4381 111.823 31.5107 111.623 31.6557C111.431 31.7932 111.281 31.9879 111.173 32.2399C111.073 32.4919 111.024 32.7859 111.024 33.1219V36.0656H109.512V32.5835C109.512 32.2094 109.42 31.9269 109.235 31.7359C109.059 31.5374 108.805 31.4381 108.474 31.4381C108.228 31.4381 108.009 31.5107 107.816 31.6557C107.632 31.7932 107.49 31.9879 107.39 32.2399C107.29 32.4919 107.239 32.7859 107.239 33.1219V36.0656H105.729ZM115.629 38.5397V30.224H117.048V30.9341H117.14C117.24 30.7815 117.37 30.6363 117.533 30.4989C117.701 30.3614 117.901 30.2507 118.132 30.1667C118.363 30.0828 118.62 30.0407 118.905 30.0407C119.443 30.0407 119.925 30.1744 120.347 30.4416C120.778 30.7013 121.116 31.064 121.362 31.5297C121.616 31.9956 121.743 32.5339 121.743 33.1448C121.743 33.7557 121.616 34.294 121.362 34.7598C121.116 35.2257 120.778 35.5922 120.347 35.8594C119.925 36.1191 119.443 36.2488 118.905 36.2488C118.483 36.2488 118.117 36.1611 117.809 35.9854C117.509 35.8021 117.287 35.596 117.14 35.3669H117.048L117.14 36.1916V38.5397H115.629ZM118.639 34.8629C118.924 34.8629 119.186 34.7942 119.424 34.6567C119.67 34.5117 119.867 34.3093 120.013 34.0497C120.166 33.7901 120.244 33.4884 120.244 33.1448C120.244 32.7935 120.166 32.4919 120.013 32.2399C119.867 31.9879 119.67 31.7932 119.424 31.6557C119.186 31.5107 118.924 31.4381 118.639 31.4381C118.363 31.4381 118.101 31.5107 117.855 31.6557C117.617 31.7932 117.421 31.9918 117.267 32.2514C117.121 32.5033 117.048 32.8012 117.048 33.1448C117.048 33.4884 117.121 33.7901 117.267 34.0497C117.421 34.3016 117.617 34.5002 117.855 34.6453C118.101 34.7904 118.363 34.8629 118.639 34.8629ZM124.418 36.2488C123.696 36.2488 123.154 36.0275 122.792 35.5845C122.43 35.1416 122.25 34.5384 122.25 33.7748V30.224H123.761V33.5915C123.761 33.9886 123.857 34.3016 124.05 34.5307C124.25 34.7522 124.503 34.8629 124.811 34.8629C125.111 34.8629 125.365 34.7904 125.572 34.6453C125.78 34.4926 125.938 34.2902 126.045 34.0382C126.161 33.7862 126.218 33.5075 126.218 33.202V30.224H127.73V36.0656H126.311V35.3325H126.218C126.103 35.5158 125.953 35.6761 125.768 35.8136C125.584 35.951 125.376 36.058 125.146 36.1343C124.922 36.2107 124.68 36.2488 124.418 36.2488ZM130.841 36.2488C130.333 36.2488 129.899 36.1764 129.537 36.0312C129.183 35.8862 128.895 35.6953 128.671 35.4585C128.449 35.2218 128.284 34.9622 128.176 34.6796L129.526 34.0955C129.657 34.3704 129.833 34.5804 130.056 34.7254C130.279 34.8629 130.541 34.9316 130.841 34.9316C131.087 34.9316 131.31 34.8935 131.51 34.8171C131.71 34.7331 131.81 34.5842 131.81 34.3704C131.81 34.2177 131.756 34.0993 131.648 34.0153C131.548 33.9237 131.421 33.8549 131.267 33.8091C131.114 33.7557 130.956 33.7137 130.795 33.6831L130.103 33.5342C129.818 33.4732 129.548 33.3663 129.295 33.2135C129.041 33.0531 128.834 32.8547 128.671 32.6179C128.518 32.3736 128.441 32.0948 128.441 31.7817C128.441 31.4305 128.541 31.1251 128.741 30.8654C128.949 30.6058 129.226 30.4035 129.572 30.2583C129.925 30.1133 130.314 30.0407 130.737 30.0407C131.129 30.0407 131.483 30.0865 131.798 30.1782C132.113 30.2698 132.387 30.4111 132.617 30.602C132.848 30.7852 133.033 31.022 133.171 31.3121L131.879 31.8734C131.756 31.6443 131.594 31.4839 131.394 31.3923C131.202 31.3007 130.995 31.2548 130.771 31.2548C130.51 31.2548 130.303 31.3045 130.149 31.4037C129.995 31.5031 129.918 31.6214 129.918 31.7588C129.918 31.904 129.995 32.03 130.149 32.1368C130.303 32.2437 130.487 32.3239 130.702 32.3773L131.567 32.5835C132.152 32.721 132.59 32.9425 132.882 33.2479C133.182 33.5534 133.333 33.9199 133.333 34.3475C133.333 34.7293 133.221 35.0653 132.998 35.3554C132.775 35.638 132.475 35.8594 132.098 36.0198C131.721 36.1725 131.302 36.2488 130.841 36.2488Z" fill="#4285F4"/>
<path d="M147.384 36.7589V28.5578H150.394C150.948 28.5578 151.429 28.6686 151.836 28.8899C152.252 29.1114 152.575 29.4168 152.806 29.8063C153.037 30.1957 153.152 30.6424 153.152 31.1464C153.152 31.5206 153.071 31.8643 152.91 32.1773C152.755 32.4828 152.544 32.7462 152.275 32.9676C152.006 33.1891 151.694 33.3609 151.34 33.4831L153.59 36.6673V36.7589H151.802L149.656 33.6778H148.941V36.7589H147.384ZM148.941 32.2575H150.383C150.621 32.2575 150.828 32.2079 151.006 32.1086C151.183 32.0093 151.321 31.8757 151.421 31.7077C151.529 31.5321 151.583 31.3374 151.583 31.1235C151.583 30.925 151.537 30.7418 151.444 30.5737C151.359 30.3981 151.229 30.2568 151.052 30.1499C150.875 30.0431 150.66 29.9895 150.406 29.9895H148.941V32.2575ZM154.175 36.7589V28.5578H159.412V30.0239H155.732V31.9253H159.043V33.3914H155.732V35.2928H159.412V36.7589H154.175ZM162.514 36.7589L159.596 28.5578H161.281L162.988 33.506L163.288 34.5483H163.38L163.703 33.506L165.48 28.5578H167.164L164.153 36.7589H162.514ZM165.891 36.7589L168.983 28.5578H170.771L173.874 36.7589H172.155L171.463 34.8003H168.302L167.61 36.7589H165.891ZM170.956 33.38L170.229 31.3182L169.929 30.3332H169.836L169.537 31.3182L168.81 33.38H170.956ZM179.631 36.9422C178.985 36.9422 178.42 36.8048 177.936 36.5299C177.459 36.255 177.086 35.8618 176.817 35.3501C176.555 34.8309 176.425 34.2124 176.425 33.4945V28.5578H177.97V33.5861C177.97 33.9451 178.032 34.2696 178.155 34.5597C178.278 34.8423 178.462 35.0676 178.709 35.2355C178.963 35.3959 179.27 35.4761 179.631 35.4761C180.001 35.4761 180.308 35.3959 180.554 35.2355C180.8 35.0676 180.985 34.8423 181.109 34.5597C181.231 34.2696 181.292 33.9451 181.292 33.5861V28.5578H182.839V33.4945C182.839 34.1742 182.708 34.7736 182.446 35.2928C182.185 35.8121 181.816 36.2168 181.339 36.5069C180.863 36.7972 180.293 36.9422 179.631 36.9422ZM183.821 36.7589V30.9173H185.241V31.6504H185.333C185.51 31.3679 185.76 31.1464 186.083 30.9861C186.405 30.8181 186.756 30.7341 187.133 30.7341C187.856 30.7341 188.397 30.9517 188.76 31.387C189.121 31.8222 189.301 32.4026 189.301 33.128V36.7589H187.79V33.3112C187.79 32.9295 187.69 32.6393 187.491 32.4407C187.298 32.2346 187.033 32.1315 186.694 32.1315C186.417 32.1315 186.175 32.2079 185.967 32.3606C185.767 32.5057 185.61 32.7042 185.494 32.9562C185.387 33.2006 185.333 33.4755 185.333 33.7809V36.7589H183.821ZM190.129 36.7589V30.9173H191.639V36.7589H190.129ZM190.889 30.2759C190.621 30.2759 190.39 30.1805 190.197 29.9895C190.005 29.7987 189.909 29.5696 189.909 29.3023C189.909 29.0351 190.005 28.8098 190.197 28.6265C190.39 28.4356 190.621 28.3401 190.889 28.3401C191.159 28.3401 191.386 28.4356 191.571 28.6265C191.763 28.8098 191.859 29.0351 191.859 29.3023C191.859 29.5696 191.763 29.7987 191.571 29.9895C191.386 30.1805 191.159 30.2759 190.889 30.2759ZM194.326 36.7589L191.834 30.9173H193.553L195.041 34.7201H195.133L196.645 30.9173H198.34L195.826 36.7589H194.326ZM201.071 36.9422C200.479 36.9422 199.948 36.8086 199.479 36.5413C199.018 36.2741 198.653 35.9076 198.383 35.4417C198.122 34.9759 197.991 34.4452 197.991 33.8496C197.991 33.2922 198.122 32.7768 198.383 32.3033C198.645 31.8299 199.003 31.4519 199.456 31.1693C199.91 30.8792 200.429 30.7341 201.013 30.7341C201.644 30.7341 202.175 30.8678 202.606 31.135C203.037 31.4023 203.363 31.7612 203.586 32.2116C203.809 32.6546 203.921 33.1471 203.921 33.6892C203.921 33.8115 203.917 33.9183 203.909 34.0099C203.902 34.094 203.894 34.1551 203.887 34.1932H199.479C199.51 34.4147 199.571 34.6094 199.664 34.7774C199.81 35.0523 200.006 35.2623 200.253 35.4074C200.506 35.5448 200.787 35.6135 201.094 35.6135C201.456 35.6135 201.76 35.5372 202.006 35.3844C202.252 35.2241 202.445 35.0256 202.582 34.7888L203.805 35.3844C203.529 35.8655 203.167 36.2474 202.721 36.5299C202.275 36.8048 201.725 36.9422 201.071 36.9422ZM199.537 33.128H202.467C202.46 32.9982 202.421 32.8645 202.352 32.7271C202.282 32.5896 202.187 32.4636 202.063 32.3491C201.941 32.2346 201.79 32.1429 201.614 32.0742C201.444 31.9979 201.249 31.9597 201.025 31.9597C200.733 31.9597 200.464 32.0361 200.217 32.1887C199.98 32.3415 199.791 32.5515 199.652 32.8187C199.606 32.918 199.568 33.0211 199.537 33.128ZM204.474 36.7589V30.9173H205.894V31.6962H205.986C206.086 31.5129 206.216 31.3526 206.378 31.2151C206.547 31.0701 206.743 30.9555 206.966 30.8715C207.189 30.7876 207.428 30.7455 207.682 30.7455C207.835 30.7455 207.974 30.757 208.096 30.7799C208.22 30.8028 208.327 30.8334 208.42 30.8715V32.372C208.259 32.311 208.096 32.2613 207.935 32.2231C207.781 32.1773 207.616 32.1544 207.439 32.1544C207.139 32.1544 206.878 32.2308 206.654 32.3835C206.439 32.5286 206.274 32.7309 206.159 32.9905C206.043 33.2425 205.986 33.5289 205.986 33.8496V36.7589H204.474ZM210.766 36.9422C210.259 36.9422 209.823 36.8697 209.462 36.7246C209.109 36.5795 208.82 36.3887 208.597 36.1519C208.374 35.9152 208.208 35.6556 208.101 35.373L209.451 34.7888C209.582 35.0637 209.758 35.2738 209.981 35.4188C210.205 35.5563 210.466 35.625 210.766 35.625C211.012 35.625 211.235 35.5869 211.435 35.5104C211.635 35.4265 211.735 35.2776 211.735 35.0637C211.735 34.9111 211.681 34.7927 211.574 34.7086C211.473 34.617 211.346 34.5483 211.192 34.5025C211.039 34.4491 210.881 34.4071 210.72 34.3765L210.028 34.2276C209.743 34.1665 209.474 34.0596 209.22 33.9069C208.966 33.7465 208.759 33.548 208.597 33.3112C208.443 33.0669 208.366 32.7882 208.366 32.4751C208.366 32.1239 208.466 31.8184 208.666 31.5588C208.874 31.2992 209.151 31.0968 209.497 30.9517C209.85 30.8066 210.239 30.7341 210.662 30.7341C211.054 30.7341 211.408 30.7799 211.723 30.8715C212.039 30.9631 212.312 31.1044 212.542 31.2953C212.773 31.4786 212.958 31.7154 213.096 32.0055L211.804 32.5667C211.681 32.3376 211.519 32.1773 211.319 32.0857C211.127 31.994 210.919 31.9482 210.697 31.9482C210.435 31.9482 210.227 31.9979 210.074 32.0971C209.92 32.1964 209.843 32.3147 209.843 32.4522C209.843 32.5973 209.92 32.7233 210.074 32.8302C210.227 32.9371 210.412 33.0173 210.627 33.0707L211.492 33.2769C212.077 33.4143 212.515 33.6358 212.807 33.9412C213.107 34.2467 213.258 34.6133 213.258 35.0408C213.258 35.4227 213.146 35.7587 212.923 36.0488C212.7 36.3314 212.4 36.5528 212.023 36.7131C211.647 36.8659 211.227 36.9422 210.766 36.9422ZM213.753 36.7589V30.9173H215.264V36.7589H213.753ZM214.514 30.2759C214.245 30.2759 214.014 30.1805 213.822 29.9895C213.63 29.7987 213.534 29.5696 213.534 29.3023C213.534 29.0351 213.63 28.8098 213.822 28.6265C214.014 28.4356 214.245 28.3401 214.514 28.3401C214.784 28.3401 215.01 28.4356 215.195 28.6265C215.387 28.8098 215.483 29.0351 215.483 29.3023C215.483 29.5696 215.387 29.7987 215.195 29.9895C215.01 30.1805 214.784 30.2759 214.514 30.2759ZM215.7 32.2002V30.9173H216.727V29.2679H218.238V30.9173H219.681V32.2002H218.238V34.617C218.238 34.8996 218.296 35.1095 218.412 35.247C218.527 35.3768 218.715 35.4417 218.977 35.4417C219.1 35.4417 219.215 35.4265 219.323 35.3959C219.431 35.3578 219.565 35.2891 219.726 35.1897V36.6559C219.558 36.717 219.385 36.7628 219.207 36.7933C219.039 36.8315 218.861 36.8506 218.677 36.8506C218.069 36.8506 217.592 36.6788 217.246 36.3351C216.9 35.9839 216.727 35.5028 216.727 34.8919V32.2002H215.7ZM222.635 38.9696C222.611 39.0231 222.588 39.0689 222.565 39.107C222.55 39.1529 222.535 39.1949 222.52 39.233H220.893C220.923 39.172 220.981 39.0422 221.066 38.8436C221.158 38.6527 221.234 38.4885 221.297 38.3511C221.342 38.2594 221.397 38.1411 221.458 37.996C221.519 37.8509 221.58 37.7059 221.643 37.5607C221.712 37.4233 221.765 37.3164 221.804 37.24L222.15 36.484L219.67 30.9173H221.388L222.912 34.5483H223.004L224.469 30.9173H226.153L223.119 37.8585C223.034 38.0571 222.958 38.2289 222.888 38.374C222.827 38.5191 222.776 38.6374 222.739 38.7291C222.7 38.8284 222.666 38.9086 222.635 38.9696Z" fill="#1E1E1E"/>
<path d="M139.911 34.3386C140.722 34.3386 141.379 33.6864 141.379 32.8819C141.379 32.0774 140.722 31.4252 139.911 31.4252C139.101 31.4252 138.444 32.0774 138.444 32.8819C138.444 33.6864 139.101 34.3386 139.911 34.3386Z" fill="#9D9D9D"/>
</g>
<defs>
<clipPath id="clip0_898_2562">
<rect width="325" height="40" fill="white"/>
</clipPath>
</defs>
</svg>
