<svg width="639" height="177" viewBox="0 0 639 177" fill="none" xmlns="http://www.w3.org/2000/svg">
<g clip-path="url(#clip0_868_1621)">
<path d="M176.224 0.430861C181.743 0.416262 187.261 0.404369 192.78 0.397391C195.343 0.394065 197.906 0.389532 200.468 0.382128C202.703 0.375676 204.937 0.371519 207.172 0.370081C208.354 0.369242 209.536 0.367277 210.719 0.362561C211.833 0.358152 212.948 0.356829 214.063 0.357795C214.47 0.357619 214.877 0.356349 215.285 0.353856C218.702 0.33399 222.142 0.510087 224.818 2.89368C228.863 7.22136 228.412 14.562 228.269 20.0429C228.122 23.9335 227.81 27.8686 224.872 30.7383C223.196 32.1069 221.063 32.6774 218.925 32.7301C218.925 32.8722 218.925 33.0144 218.925 33.1608C219.121 33.1741 219.318 33.1874 219.521 33.2012C221.792 33.543 223.734 34.6567 225.211 36.3907C226.611 38.6207 227.017 41.3092 227.189 43.8868C227.206 44.1181 227.222 44.3493 227.24 44.5876C227.497 48.2444 227.626 51.8895 227.595 55.555C230.099 55.555 232.602 55.555 235.182 55.555C235.182 58.5394 235.182 61.5239 235.182 64.5987C233.5 64.6136 231.82 64.6265 230.138 64.6342C229.567 64.6375 228.996 64.6419 228.425 64.6475C227.601 64.6554 226.777 64.659 225.952 64.6618C225.7 64.6652 225.448 64.6685 225.189 64.6719C223.174 64.6723 221.108 64.5475 219.467 63.2799C215.958 59.7795 216.8 51.9233 216.649 47.4128C216.672 42.4871 216.672 42.4871 214.427 38.3421C212.114 36.5372 209.204 36.7852 206.406 36.7532C206.116 36.7493 205.825 36.7452 205.534 36.7411C204.466 36.7264 203.398 36.7134 202.329 36.7003C198.742 36.6536 198.742 36.6536 195.082 36.606C195.082 42.9302 195.082 49.2544 195.082 55.7703C197.943 55.7703 200.804 55.7703 203.752 55.7703C203.752 58.6837 203.752 61.5971 203.752 64.5987C194.667 64.5987 185.583 64.5987 176.224 64.5987C176.224 61.6854 176.224 58.772 176.224 55.7703C179.085 55.7703 181.946 55.7703 184.894 55.7703C184.894 40.4217 184.894 25.0731 184.894 9.25933C182.033 9.25933 179.172 9.25933 176.224 9.25933C176.224 6.34593 176.224 3.43254 176.224 0.430861ZM195.082 9.25933C195.082 15.5125 195.082 21.7656 195.082 28.2082C198.55 28.227 198.55 28.227 202.019 28.2398C203.434 28.2436 204.849 28.2482 206.265 28.257C207.406 28.264 208.547 28.2679 209.688 28.2695C210.123 28.2707 210.558 28.273 210.993 28.2765C211.603 28.2812 212.213 28.2819 212.823 28.2816C213.002 28.2839 213.181 28.2862 213.366 28.2886C214.512 28.2826 215.305 28.0938 216.324 27.5622C216.67 27.2022 216.67 27.2022 216.838 26.7682C216.903 26.6342 216.967 26.5001 217.033 26.362C217.485 24.8626 217.442 23.2819 217.444 21.7316C217.445 21.5059 217.445 21.2803 217.446 21.0478C217.447 20.5722 217.448 20.0967 217.448 19.6211C217.448 18.9005 217.452 18.18 217.456 17.4595C217.457 16.9949 217.457 16.5303 217.457 16.0657C217.46 15.7476 217.46 15.7476 217.462 15.4231C217.483 12.3252 217.483 12.3252 216.107 9.68999C214.93 9.25909 213.872 9.19954 212.627 9.21044C212.436 9.21038 212.246 9.21031 212.049 9.21025C211.424 9.21055 210.799 9.21389 210.174 9.21727C209.739 9.21808 209.304 9.21869 208.868 9.21912C207.726 9.22076 206.584 9.22499 205.442 9.22976C204.07 9.23495 202.698 9.23692 201.326 9.23943C199.244 9.2436 197.163 9.25185 195.082 9.25933Z" fill="#1E1E1E"/>
<path d="M384.489 -0.0345987C384.696 -0.0366675 384.903 -0.0387362 385.116 -0.0408677C385.339 -0.0417828 385.561 -0.042698 385.79 -0.0436408C386.136 -0.0454819 386.136 -0.0454819 386.489 -0.0473602C386.976 -0.0493933 387.464 -0.0508013 387.951 -0.0516315C388.694 -0.053718 389.436 -0.0603986 390.179 -0.0671924C390.653 -0.0685989 391.128 -0.0697293 391.602 -0.0705569C391.933 -0.0745448 391.933 -0.0745448 392.271 -0.0786133C393.599 -0.0745197 394.605 0.045846 395.798 0.646083C396.549 1.43097 396.909 2.23915 397.233 3.25484C397.308 3.47923 397.308 3.47923 397.384 3.70815C397.548 4.20078 397.708 4.69442 397.868 5.18817C397.983 5.53758 398.098 5.88693 398.213 6.23624C398.568 7.31451 398.918 8.39432 399.267 9.47455C399.346 9.71928 399.346 9.71928 399.426 9.96895C400.141 12.1811 400.845 14.3967 401.545 16.6133C401.823 17.49 402.1 18.3665 402.378 19.243C402.726 20.3408 403.074 21.4385 403.422 22.5363C404.218 25.0509 405.017 27.5647 405.818 30.078C407.861 36.4931 409.9 42.9094 411.918 49.3321C412.054 49.7651 412.191 50.198 412.327 50.6309C412.576 51.4202 412.824 52.2098 413.071 52.9995C413.145 53.2326 413.218 53.4657 413.294 53.7058C413.36 53.9166 413.426 54.1274 413.494 54.3446C413.551 54.5276 413.609 54.7106 413.668 54.8992C413.789 55.3395 413.789 55.3395 413.789 55.7702C416.15 55.7702 418.51 55.7702 420.942 55.7702C420.942 58.6836 420.942 61.597 420.942 64.5986C412.001 64.5986 403.06 64.5986 393.848 64.5986C393.848 61.6852 393.848 58.7719 393.848 55.7702C398.139 55.6636 398.139 55.6636 402.518 55.5548C402.299 54.8343 402.08 54.1137 401.854 53.3713C401.643 52.6737 401.432 51.976 401.221 51.2782C401.075 50.7931 400.927 50.3082 400.78 49.8233C400.568 49.1266 400.357 48.4296 400.147 47.7324C400.081 47.5154 400.014 47.2985 399.946 47.075C399.885 46.8725 399.825 46.6699 399.762 46.4612C399.708 46.2833 399.654 46.1055 399.599 45.9222C399.483 45.4344 399.483 45.4344 399.483 44.5731C392.116 44.5731 384.748 44.5731 377.157 44.5731C376.943 45.4258 376.728 46.2785 376.507 47.157C376.301 47.8713 376.092 48.5828 375.875 49.2935C375.789 49.5748 375.789 49.5748 375.702 49.8617C375.524 50.4497 375.345 51.0374 375.166 51.6251C375.043 52.0283 374.921 52.4314 374.799 52.8346C374.502 53.8134 374.204 54.7918 373.906 55.7702C376.767 55.7702 379.628 55.7702 382.576 55.7702C382.576 58.6836 382.576 61.597 382.576 64.5986C373.993 64.5986 365.409 64.5986 356.565 64.5986C356.565 61.6852 356.565 58.7719 356.565 55.7702C358.926 55.7702 361.286 55.7702 363.718 55.7702C363.861 55.1306 364.005 54.4911 364.152 53.8322C364.271 53.4147 364.397 52.9989 364.53 52.5856C364.64 52.2443 364.64 52.2443 364.751 51.8961C364.83 51.6532 364.909 51.4103 364.99 51.16C365.119 50.7598 365.247 50.3596 365.376 49.9594C365.513 49.532 365.651 49.1048 365.789 48.6776C366.233 47.3036 366.674 45.9286 367.115 44.5538C367.217 44.2356 367.319 43.9174 367.421 43.5992C368.463 40.3504 369.488 37.0961 370.508 33.8404C371.663 30.1572 372.822 26.4756 374 22.7997C374.049 22.6469 374.098 22.4941 374.148 22.3367C374.636 20.8169 375.124 19.2973 375.613 17.7781C376.522 14.952 377.426 12.1249 378.297 9.28698C378.367 9.05833 378.438 8.82968 378.51 8.5941C378.832 7.54937 379.152 6.50407 379.466 5.45717C379.577 5.09551 379.688 4.73387 379.799 4.37227C379.845 4.21439 379.892 4.0565 379.939 3.89383C380.348 2.57783 380.922 1.28998 382.048 0.444213C382.876 0.0857604 383.588 -0.0272998 384.489 -0.0345987ZM387.562 9.25922C385.605 15.7157 383.654 22.1739 381.726 28.6391C381.552 29.2221 381.378 29.805 381.204 30.3878C380.96 31.2022 380.717 32.017 380.475 32.8318C380.365 33.1963 380.365 33.1963 380.254 33.5681C380.188 33.7898 380.122 34.0115 380.055 34.2399C379.997 34.4328 379.94 34.6258 379.88 34.8246C379.732 35.3345 379.732 35.3345 379.758 35.96C385.338 35.96 390.917 35.96 396.666 35.96C396.397 34.6266 396.129 33.3589 395.736 32.0671C395.689 31.9073 395.641 31.7476 395.592 31.5831C395.435 31.0604 395.278 30.538 395.12 30.0157C395.009 29.6438 394.897 29.2718 394.786 28.8998C394.493 27.9205 394.199 26.9415 393.904 25.9626C393.44 24.4172 392.977 22.8712 392.514 21.3253C392.344 20.7591 392.174 20.193 392.004 19.6269C391.207 16.9694 390.424 14.3084 389.654 11.6429C389.581 11.3897 389.508 11.1365 389.432 10.8756C389.369 10.6555 389.305 10.4354 389.24 10.2087C389.096 9.69411 389.096 9.69411 388.862 9.25922C388.433 9.25922 388.004 9.25922 387.562 9.25922Z" fill="#1E1E1E"/>
<path d="M242.118 0.430664C258.856 0.430664 275.594 0.430664 292.839 0.430664C292.839 6.82592 292.839 13.2212 292.839 19.8102C289.549 19.8102 286.259 19.8102 282.869 19.8102C282.869 16.3284 282.869 12.8465 282.869 9.25913C275.644 9.25913 268.419 9.25913 260.976 9.25913C260.976 15.0859 260.976 20.9127 260.976 26.9161C266.627 26.9161 272.278 26.9161 278.1 26.9161C278.1 29.7584 278.1 32.6007 278.1 35.5292C272.449 35.5292 266.798 35.5292 260.976 35.5292C260.976 42.2087 260.976 48.8882 260.976 55.7701C268.487 55.7701 275.997 55.7701 283.736 55.7701C283.736 51.7908 283.736 47.8115 283.736 43.7117C286.954 43.7117 290.173 43.7117 293.49 43.7117C293.49 50.6044 293.49 57.497 293.49 64.5985C276.537 64.5985 259.584 64.5985 242.118 64.5985C242.118 61.6852 242.118 58.7718 242.118 55.7701C244.979 55.7701 247.841 55.7701 250.788 55.7701C250.788 40.4215 250.788 25.0729 250.788 9.25913C247.927 9.25913 245.066 9.25913 242.118 9.25913C242.118 6.34574 242.118 3.43234 242.118 0.430664Z" fill="#1E1E1E"/>
<path d="M299.992 0.430664C308.933 0.430664 317.875 0.430664 327.087 0.430664C327.087 3.34406 327.087 6.25745 327.087 9.25913C324.226 9.25913 321.364 9.25913 318.417 9.25913C318.784 10.4341 318.784 10.4341 319.159 11.6328C320.147 14.8114 321.08 18.0055 322.007 21.202C322.384 22.5026 322.763 23.8027 323.142 25.103C323.29 25.6109 323.438 26.1188 323.586 26.6267C324.578 30.0359 325.577 33.4432 326.578 36.85C326.82 37.6737 327.062 38.4974 327.304 39.3211C328.165 42.2574 329.028 45.1932 329.902 48.1259C330.028 48.5479 330.153 48.97 330.278 49.392C330.5 50.1358 330.722 50.8792 330.946 51.6223C331.04 51.9406 331.135 52.2588 331.23 52.5772C331.35 52.9772 331.35 52.9772 331.472 53.3853C331.639 54.0475 331.639 54.0475 331.639 54.9088C332.068 54.9088 332.497 54.9088 332.939 54.9088C332.983 54.7244 333.026 54.54 333.071 54.35C333.697 51.7818 334.446 49.2542 335.205 46.7223C335.588 45.4419 335.97 44.1609 336.352 42.8799C336.493 42.4055 336.635 41.9312 336.776 41.4569C338.034 37.2395 339.279 33.0183 340.525 28.7975C340.773 27.9602 341.02 27.1228 341.267 26.2855C341.507 25.4742 341.747 24.6628 341.986 23.8515C342.104 23.4539 342.221 23.0563 342.339 22.6586C342.997 20.4288 343.655 18.1986 344.309 15.9675C344.49 15.3524 344.67 14.7372 344.851 14.122C345.022 13.5402 345.192 12.9582 345.362 12.3762C345.465 12.0256 345.568 11.6749 345.671 11.3243C345.718 11.164 345.765 11.0038 345.813 10.8387C346.137 9.73878 346.137 9.73878 346.378 9.25913C343.517 9.25913 340.656 9.25913 337.708 9.25913C337.708 6.34574 337.708 3.43234 337.708 0.430664C346.292 0.430664 354.875 0.430664 363.719 0.430664C363.719 3.34406 363.719 6.25745 363.719 9.25913C361.358 9.25913 358.998 9.25913 356.566 9.25913C356.423 9.89866 356.28 10.5382 356.132 11.1971C355.993 11.6805 355.847 12.1621 355.694 12.6414C355.565 13.0473 355.565 13.0473 355.434 13.4615C355.34 13.7544 355.246 14.0474 355.152 14.3404C355.053 14.6519 354.953 14.9635 354.854 15.2752C354.642 15.9409 354.43 16.6064 354.217 17.2719C353.878 18.3323 353.54 19.3932 353.203 20.4541C353.117 20.7221 353.117 20.7221 353.03 20.9956C352.915 21.3583 352.799 21.7211 352.684 22.0838C352.509 22.6328 352.334 23.1818 352.16 23.7308C351.135 26.949 350.12 30.1704 349.109 33.3928C347.318 39.099 345.513 44.8008 343.702 50.5006C343.551 50.9755 343.4 51.4503 343.249 51.9252C343.055 52.5369 342.861 53.1486 342.666 53.7601C342.194 55.2438 341.729 56.7292 341.277 58.2191C341.146 58.649 341.015 59.0789 340.883 59.5088C340.763 59.9064 340.644 60.3047 340.526 60.703C340.068 62.2042 339.616 63.566 338.358 64.5985C337.707 64.8142 337.261 64.8449 336.58 64.852C336.35 64.8548 336.12 64.8575 335.883 64.8604C335.51 64.8627 335.51 64.8627 335.13 64.8652C334.874 64.8669 334.618 64.8687 334.355 64.8705C333.813 64.8734 333.271 64.8757 332.729 64.8774C331.902 64.8811 331.074 64.8906 330.246 64.9001C329.72 64.9023 329.194 64.9041 328.668 64.9056C328.297 64.9112 328.297 64.9112 327.918 64.917C326.932 64.9143 326.174 64.8826 325.254 64.5121C323.678 62.9132 323.177 60.5797 322.527 58.4936C322.424 58.1678 322.321 57.8419 322.218 57.5162C321.941 56.6415 321.667 55.7661 321.392 54.8905C321.102 53.966 320.81 53.0422 320.519 52.1182C319.984 50.4246 319.451 48.7304 318.919 47.036C318.418 45.4388 317.915 43.842 317.412 42.2453C316.841 40.43 316.269 38.6146 315.699 36.7988C314.086 31.6614 312.462 26.5275 310.836 21.394C310.468 20.2321 310.1 19.0701 309.733 17.9079C309.438 16.9766 309.143 16.0456 308.847 15.1146C308.643 14.4706 308.439 13.8265 308.235 13.1823C308.138 12.8748 308.041 12.5673 307.943 12.26C307.808 11.8366 307.674 11.413 307.54 10.9893C307.426 10.6275 307.426 10.6275 307.308 10.2584C307.145 9.68979 307.145 9.68979 307.145 9.25913C304.785 9.25913 302.424 9.25913 299.992 9.25913C299.992 6.34574 299.992 3.43234 299.992 0.430664Z" fill="#1E1E1E"/>
<path d="M231.713 78.1643C233.527 78.1399 235.342 78.1202 237.157 78.1085C237.999 78.1029 238.842 78.0953 239.684 78.0831C240.498 78.0714 241.312 78.0649 242.126 78.0622C242.436 78.0602 242.745 78.0563 243.055 78.0505C245.787 78.0012 245.787 78.0012 246.608 78.6292C247.105 79.2445 247.474 79.8099 247.817 80.5211C247.94 80.7712 248.063 81.0213 248.19 81.279C248.315 81.5416 248.441 81.8044 248.566 82.0671C248.812 82.5749 249.06 83.0823 249.307 83.5896C249.372 83.7215 249.436 83.8534 249.502 83.9893C250.126 85.2645 250.791 86.5167 251.459 87.7695C252.399 89.533 253.314 91.3084 254.228 93.0856C254.724 94.0516 255.221 95.0172 255.719 95.9827C255.817 96.1738 255.916 96.3648 256.017 96.5616C256.848 98.1743 257.684 99.7843 258.523 101.393C259.697 103.643 260.866 105.895 262.032 108.149C262.197 108.468 262.362 108.786 262.527 109.105C262.774 109.583 263.022 110.062 263.269 110.541C264.077 112.101 264.884 113.66 265.693 115.22C265.839 115.502 265.985 115.783 266.13 116.065C267.582 118.868 269.048 121.663 270.512 124.46C270.62 103.675 270.62 103.675 270.729 82.4709C268.154 82.4709 265.579 82.4709 262.926 82.4709C262.926 81.0497 262.926 79.6285 262.926 78.1643C269.221 78.1643 275.515 78.1643 282.001 78.1643C282.001 79.5855 282.001 81.0066 282.001 82.4709C279.783 82.4709 277.566 82.4709 275.281 82.4709C275.281 98.1037 275.281 113.737 275.281 129.843C269.212 129.843 269.212 129.843 267.911 129.197C267.609 128.857 267.609 128.857 267.409 128.483C267.33 128.339 267.251 128.195 267.17 128.047C267.088 127.889 267.006 127.731 266.922 127.569C266.832 127.401 266.742 127.233 266.649 127.061C265.737 125.349 264.869 123.614 264.008 121.877C263.328 120.505 262.625 119.148 261.906 117.796C260.801 115.72 259.723 113.631 258.65 111.539C258.103 110.472 257.554 109.404 257.006 108.337C256.898 108.128 256.79 107.918 256.679 107.702C255.827 106.045 254.969 104.391 254.107 102.739C252.678 100.001 251.26 97.2572 249.845 94.5126C248.402 91.7166 246.957 88.9224 245.509 86.1293C245.356 85.8336 245.203 85.538 245.049 85.2424C244.981 85.1109 244.913 84.9794 244.843 84.8439C244.533 84.2462 244.233 83.6498 243.953 83.0378C243.682 82.4059 243.682 82.4059 242.984 82.2555C242.984 96.8225 242.984 111.389 242.984 126.398C245.631 126.398 248.277 126.398 251.004 126.398C251.004 127.464 251.004 128.53 251.004 129.628C244.638 129.628 238.272 129.628 231.713 129.628C231.713 128.562 231.713 127.496 231.713 126.398C234.002 126.398 236.291 126.398 238.649 126.398C238.649 111.902 238.649 97.4061 238.649 82.4709C236.36 82.4709 234.071 82.4709 231.713 82.4709C231.713 81.0497 231.713 79.6285 231.713 78.1643Z" fill="#1E1E1E"/>
<path d="M79.9834 15.0728C80.7027 15.3844 81.1756 15.7732 81.7282 16.3236C81.9008 16.4945 82.0735 16.6654 82.2513 16.8415C82.4387 17.0292 82.6261 17.2169 82.8192 17.4104C83.1175 17.7066 83.1175 17.7066 83.4218 18.0088C83.9664 18.5497 84.5097 19.0919 85.0527 19.6343C85.6206 20.2012 86.1898 20.7669 86.7589 21.3327C87.836 22.4041 88.912 23.4765 89.9876 24.5494C91.2123 25.7708 92.4383 26.9911 93.6643 28.2112C96.1861 30.7209 98.7064 33.2321 101.226 35.7443C100.45 36.6616 99.6571 37.5444 98.8024 38.3913C98.6986 38.4944 98.5949 38.5975 98.4879 38.7038C98.1507 39.0386 97.8127 39.3727 97.4747 39.7068C97.2384 39.9412 97.0021 40.1756 96.7659 40.41C96.1485 41.0226 95.5304 41.6344 94.9122 42.2462C94.2797 42.8723 93.6478 43.499 93.0159 44.1257C91.7792 45.352 90.5418 46.5775 89.3039 47.8027C88.4303 47.4028 87.8337 46.8279 87.1669 46.1524C87.0478 46.0335 86.9288 45.9146 86.8061 45.7922C86.4275 45.4136 86.0503 45.0336 85.6733 44.6535C85.4162 44.396 85.1591 44.1386 84.9019 43.8813C84.2728 43.2516 83.645 42.6206 83.018 41.9888C83.3656 41.1264 83.9763 40.551 84.6318 39.9129C84.7467 39.7994 84.8615 39.6859 84.9799 39.569C85.3455 39.2082 85.7125 38.849 86.0797 38.4897C86.3284 38.2448 86.5771 37.9997 86.8256 37.7546C87.4338 37.1551 88.0434 36.557 88.6537 35.9596C87.7203 34.851 86.7412 33.8155 85.7088 32.7978C85.4807 32.5716 85.4807 32.5716 85.2479 32.3408C84.767 31.8643 84.2854 31.3886 83.8037 30.9129C83.4754 30.5878 83.1472 30.2627 82.819 29.9376C82.0189 29.1451 81.2181 28.3532 80.4169 27.5618C79.7271 27.8644 79.2652 28.2227 78.7351 28.7529C78.579 28.9081 78.4228 29.0633 78.2619 29.2231C78.0957 29.3905 77.9295 29.5578 77.7582 29.7302C77.5003 29.9874 77.5003 29.9874 77.2371 30.2498C76.6884 30.7973 76.1412 31.3463 75.5941 31.8953C75.2222 32.2669 74.8502 32.6384 74.4781 33.0098C73.5665 33.9202 72.6562 34.8318 71.7466 35.7443C72.7528 36.9469 73.8286 38.0511 74.9492 39.1485C75.1358 39.3321 75.3224 39.5158 75.5146 39.705C75.9175 40.1015 76.3206 40.4978 76.7238 40.8939C77.3613 41.5201 77.9975 42.1476 78.6333 42.7754C78.8516 42.9909 79.0699 43.2065 79.2882 43.422C79.3974 43.5298 79.5066 43.6376 79.6192 43.7487C81.0978 45.2083 82.5774 46.6669 84.06 48.1225C85.0631 49.1073 86.0644 50.094 87.0634 51.0829C87.5915 51.6055 88.1205 52.127 88.6519 52.6462C89.2429 53.2237 89.8296 53.8052 90.416 54.3872C90.5931 54.5589 90.7702 54.7306 90.9527 54.9075C91.1902 55.1452 91.1902 55.1452 91.4325 55.3877C91.5716 55.5247 91.7108 55.6616 91.8542 55.8028C92.1218 56.2005 92.1218 56.2005 92.0883 56.6447C91.7875 57.3293 91.2531 57.8102 90.729 58.3311C90.611 58.4498 90.4931 58.5686 90.3716 58.691C90.1223 58.941 89.8721 59.1902 89.6211 59.4386C89.2368 59.8201 88.8573 60.206 88.478 60.5924C88.2351 60.8348 87.992 61.0769 87.7485 61.3187C87.6352 61.4349 87.5218 61.5511 87.405 61.6707C87.0785 61.989 87.0785 61.989 86.4861 62.445C85.6873 62.3874 85.2989 61.9915 84.7495 61.4435C84.4933 61.1904 84.4933 61.1904 84.2319 60.932C84.0465 60.7456 83.8612 60.5591 83.6702 60.367C83.4734 60.1716 83.2767 59.9763 83.074 59.775C82.5347 59.2395 81.9975 58.702 81.4606 58.1641C80.8991 57.6023 80.3358 57.0423 79.7726 56.4821C78.7066 55.421 77.6422 54.3584 76.5784 53.2951C75.3672 52.0847 74.1542 50.8761 72.941 49.6677C70.4455 47.1819 67.9523 44.6938 65.4607 42.2041C65.2195 42.408 64.9785 42.6121 64.7377 42.8162C64.6034 42.9299 64.4692 43.0435 64.331 43.1606C63.8143 43.6078 63.3298 44.0815 62.8469 44.5643C62.6562 44.7545 62.4655 44.9446 62.269 45.1405C62.0749 45.3351 61.8809 45.5297 61.681 45.7301C61.481 45.9297 61.2811 46.1293 61.0751 46.3349C60.5857 46.8237 60.0967 47.3129 59.6082 47.8027C58.7193 47.4535 58.1274 46.8172 57.4711 46.1524C57.3521 46.0335 57.233 45.9146 57.1104 45.7922C56.7317 45.4136 56.3546 45.0336 55.9775 44.6535C55.7205 44.396 55.4634 44.1386 55.2062 43.8813C54.5771 43.2516 53.9493 42.6206 53.3223 41.9888C53.6632 41.1722 54.1775 40.6555 54.8036 40.0348C54.9111 39.9276 55.0186 39.8205 55.1293 39.7101C55.4894 39.3517 55.851 38.9949 56.2126 38.638C56.4712 38.3812 56.7296 38.1244 56.988 37.8675C57.6896 37.1704 58.3926 36.4745 59.0959 35.779C59.8306 35.0518 60.564 34.3234 61.2976 33.5951C62.687 32.2163 64.0775 30.8385 65.4683 29.4611C67.0517 27.893 68.6339 26.3236 70.216 24.7541C73.4704 21.5257 76.7264 18.2987 79.9834 15.0728Z" fill="#1E1E1E"/>
<path d="M44.6351 68.289C45.204 68.5229 45.5208 68.8269 45.9555 69.2605C46.1263 69.4293 46.2971 69.5981 46.4731 69.772C46.6585 69.9584 46.8439 70.1449 47.0349 70.3371C47.2316 70.5324 47.4283 70.7278 47.631 70.929C48.1703 71.4646 48.7075 72.002 49.2444 72.5399C49.8059 73.1017 50.3693 73.6618 50.9324 74.222C51.9985 75.283 53.0628 76.3456 54.1266 77.4089C55.3378 78.6193 56.5508 79.8279 57.764 81.0363C60.2595 83.5221 62.7527 86.0103 65.2444 88.4999C65.4855 88.2961 65.7265 88.092 65.9674 87.8878C66.1016 87.7741 66.2358 87.6605 66.3741 87.5435C66.8907 87.0962 67.3752 86.6225 67.8581 86.1397C68.0488 85.9495 68.2395 85.7594 68.436 85.5635C68.6301 85.3689 68.8241 85.1744 69.0241 84.9739C69.224 84.7743 69.4239 84.5747 69.6299 84.3691C70.1194 83.8803 70.6083 83.3911 71.0968 82.9013C71.9857 83.2505 72.5776 83.8868 73.2339 84.5516C73.3529 84.6705 73.472 84.7894 73.5947 84.9119C73.9733 85.2904 74.3504 85.6704 74.7275 86.0505C74.9845 86.308 75.2416 86.5654 75.4988 86.8227C76.128 87.4524 76.7557 88.0834 77.3828 88.7152C77.0419 89.5318 76.5276 90.0485 75.9014 90.6692C75.7939 90.7764 75.6865 90.8835 75.5757 90.9939C75.2156 91.3523 74.854 91.7092 74.4924 92.066C74.2339 92.3228 73.9754 92.5796 73.717 92.8365C73.0154 93.5337 72.3124 94.2295 71.6092 94.9251C70.8745 95.6522 70.141 96.3806 69.4074 97.1089C68.018 98.4877 66.6276 99.8655 65.2367 101.243C63.6533 102.811 62.0711 104.38 60.4891 105.95C57.2346 109.178 53.9786 112.405 50.7216 115.631C50.0088 115.321 49.5342 114.938 48.9836 114.394C48.8125 114.227 48.6413 114.059 48.465 113.886C48.2793 113.701 48.0936 113.517 47.9023 113.327C47.7052 113.133 47.5081 112.939 47.305 112.739C46.7653 112.208 46.2269 111.675 45.689 111.142C45.353 110.809 45.0167 110.476 44.6803 110.143C43.5073 108.983 42.3355 107.822 41.1647 106.66C40.0724 105.575 38.9773 104.494 37.8808 103.414C36.9399 102.486 36.0011 101.557 35.0638 100.626C34.5038 100.07 33.943 99.5148 33.38 98.9616C32.7531 98.3455 32.1305 97.7251 31.5083 97.1043C31.3204 96.9208 31.1325 96.7373 30.9389 96.5483C30.7708 96.3792 30.6027 96.2102 30.4296 96.036C30.2819 95.8897 30.1341 95.7433 29.9819 95.5926C29.6962 95.1751 29.6962 95.1751 29.7298 94.7241C30.0144 94.0865 30.4976 93.6489 30.9921 93.1683C31.1042 93.0569 31.2163 92.9455 31.3318 92.8307C31.702 92.4633 32.0746 92.0982 32.4471 91.7332C32.7045 91.4787 32.9618 91.224 33.2189 90.9693C33.8956 90.2995 34.5742 89.6317 35.2533 88.9642C35.946 88.2827 36.6369 87.5993 37.328 86.916C38.6839 85.576 40.0418 84.238 41.4011 82.9013C42.2748 83.3013 42.8713 83.8762 43.5382 84.5516C43.6572 84.6705 43.7763 84.7894 43.8989 84.9119C44.2776 85.2904 44.6547 85.6704 45.0318 86.0505C45.2888 86.308 45.5459 86.5654 45.8031 86.8227C46.4322 87.4524 47.06 88.0834 47.687 88.7152C47.3394 89.5776 46.7287 90.153 46.0732 90.7911C45.9584 90.9046 45.8435 91.0181 45.7252 91.135C45.3596 91.4958 44.9925 91.8551 44.6253 92.2143C44.3766 92.4592 44.1279 92.7043 43.8794 92.9494C43.2712 93.5489 42.6616 94.147 42.0513 94.7444C42.9848 95.853 43.9638 96.8885 44.9962 97.9062C45.1483 98.057 45.3004 98.2078 45.4572 98.3632C45.938 98.8397 46.4196 99.3154 46.9013 99.7912C47.2296 100.116 47.5578 100.441 47.886 100.766C48.6861 101.559 49.4869 102.351 50.2881 103.142C50.978 102.84 51.4399 102.481 51.9699 101.951C52.1261 101.796 52.2822 101.641 52.4431 101.481C52.6093 101.314 52.7755 101.146 52.9468 100.974C53.2047 100.717 53.2047 100.717 53.4679 100.454C54.0166 99.9067 54.5638 99.3578 55.111 98.8087C55.4828 98.4371 55.8548 98.0656 56.2269 97.6942C57.1386 96.7839 58.0489 95.8722 58.9584 94.9597C57.9522 93.7571 56.8764 92.6529 55.7558 91.5555C55.5692 91.3719 55.3826 91.1882 55.1904 90.999C54.7875 90.6025 54.3845 90.2062 53.9812 89.8101C53.3437 89.1839 52.7076 88.5564 52.0717 87.9286C51.8534 87.7131 51.6351 87.4976 51.4168 87.2821C51.3076 87.1742 51.1984 87.0664 51.0859 86.9553C49.6073 85.4957 48.1277 84.0371 46.645 82.5816C45.6419 81.5967 44.6407 80.6101 43.6416 79.6211C43.1136 79.0986 42.5845 78.577 42.0531 78.0578C41.4622 77.4804 40.8754 76.8988 40.289 76.3168C40.1119 76.1451 39.9348 75.9734 39.7523 75.7965C39.594 75.638 39.4357 75.4796 39.2726 75.3163C39.1334 75.1794 38.9942 75.0424 38.8508 74.9012C38.5832 74.5035 38.5832 74.5035 38.6168 74.0593C38.9175 73.3747 39.4519 72.8938 39.9761 72.373C40.094 72.2542 40.2119 72.1354 40.3334 72.013C40.5827 71.763 40.8329 71.5138 41.0839 71.2655C41.4682 70.8839 41.8477 70.498 42.227 70.1116C42.4699 69.8692 42.713 69.6271 42.9565 69.3853C43.0699 69.2691 43.1832 69.153 43.3 69.0333C44.1029 68.2506 44.1029 68.2506 44.6351 68.289Z" fill="#1E1E1E"/>
<path d="M20.5921 44.5728C21.4139 44.9545 21.9475 45.4301 22.5957 46.0665C22.7061 46.1744 22.8165 46.2823 22.9303 46.3934C23.2937 46.7493 23.6555 47.1068 24.0171 47.4645C24.269 47.7129 24.521 47.9613 24.773 48.2096C25.3002 48.7298 25.8264 49.2509 26.3521 49.7725C27.027 50.4417 27.7053 51.1074 28.3844 51.7723C28.9056 52.2837 29.4243 52.7974 29.9424 53.3118C30.1916 53.5584 30.4416 53.8041 30.6925 54.0489C31.0424 54.3907 31.3886 54.7357 31.7342 55.0817C31.9323 55.2774 32.1304 55.4731 32.3345 55.6747C32.7305 56.2005 32.7305 56.2005 32.7162 56.6639C32.3804 57.324 31.8586 57.8134 31.3377 58.3311C31.2198 58.4498 31.1019 58.5686 30.9804 58.691C30.731 58.941 30.4808 59.1902 30.2298 59.4386C29.8455 59.8201 29.4661 60.206 29.0867 60.5924C28.8439 60.8348 28.6007 61.0769 28.3573 61.3188C28.2439 61.4349 28.1305 61.5511 28.0137 61.6708C27.2305 62.4342 27.2305 62.4342 26.6588 62.4797C26.0147 62.1061 25.5204 61.6057 25.0052 61.0782C24.8909 60.9638 24.7767 60.8494 24.659 60.7315C24.2953 60.3666 23.9339 59.9995 23.5725 59.6323C23.326 59.3842 23.0793 59.1362 22.8325 58.8883C22.2285 58.2812 21.6265 57.672 21.0256 57.0618C20.3358 57.3644 19.8739 57.7227 19.3439 58.2529C19.1877 58.4081 19.0315 58.5633 18.8707 58.7231C18.7044 58.8905 18.5382 59.0578 18.367 59.2302C18.109 59.4874 18.109 59.4874 17.8458 59.7498C17.2971 60.2973 16.75 60.8463 16.2028 61.3953C15.8309 61.7669 15.4589 62.1384 15.0868 62.5098C14.1752 63.4202 13.2648 64.3318 12.3554 65.2443C13.2888 66.3529 14.2678 67.3884 15.3002 68.4061C15.4523 68.5569 15.6044 68.7077 15.7612 68.8631C16.242 69.3396 16.7237 69.8153 17.2053 70.2911C17.5336 70.6161 17.8618 70.9412 18.19 71.2663C18.9902 72.0588 19.7909 72.8507 20.5921 73.6421C21.3035 73.3328 21.7736 72.9523 22.3205 72.4076C22.4895 72.2403 22.6585 72.073 22.8326 71.9007C23.0159 71.717 23.1993 71.5333 23.3882 71.344C23.5828 71.1508 23.7774 70.9575 23.978 70.7583C24.5109 70.229 25.0425 69.6984 25.5739 69.1675C26.1297 68.6127 26.6867 68.0591 27.2436 67.5053C28.2977 66.4568 29.3507 65.4073 30.4033 64.3573C31.6018 63.1619 32.8015 61.9677 34.0014 60.7736C36.4692 58.3175 38.9355 55.8599 41.4008 53.4012C42.2745 53.8011 42.871 54.3761 43.5379 55.0515C43.657 55.1704 43.776 55.2893 43.8987 55.4117C44.2773 55.7903 44.6544 56.1703 45.0315 56.5504C45.2885 56.8079 45.5456 57.0653 45.8028 57.3226C46.432 57.9523 47.0597 58.5833 47.6868 59.2151C47.3459 60.0317 46.8316 60.5484 46.2054 61.1691C46.098 61.2763 45.9905 61.3834 45.8797 61.4938C45.5197 61.8522 45.1581 62.209 44.7964 62.5659C44.5379 62.8227 44.2794 63.0795 44.021 63.3364C43.3194 64.0335 42.6164 64.7294 41.9132 65.4249C41.1785 66.1521 40.445 66.8805 39.7114 67.6088C38.322 68.9876 36.9316 70.3654 35.5407 71.7428C33.9573 73.3109 32.3751 74.8803 30.7931 76.4498C27.5386 79.6783 24.2826 82.9052 21.0256 86.1312C20.3129 85.821 19.8382 85.4375 19.2876 84.8943C19.1165 84.7264 18.9454 84.5586 18.7691 84.3856C18.5833 84.2013 18.3976 84.0169 18.2063 83.827C18.0092 83.633 17.8121 83.439 17.609 83.2391C17.0693 82.7076 16.5309 82.1748 15.993 81.6415C15.657 81.3084 15.3207 80.9757 14.9843 80.6431C13.8113 79.4831 12.6395 78.3218 11.4687 77.1595C10.3764 76.0752 9.28128 74.9937 8.18486 73.9135C7.24393 72.9863 6.30508 72.0569 5.36782 71.126C4.80784 70.5699 4.24701 70.0147 3.68404 69.4615C3.0571 68.8454 2.43455 68.225 1.81231 67.6042C1.6244 67.4207 1.43649 67.2372 1.24288 67.0482C1.07482 66.8791 0.906751 66.7101 0.733593 66.5359C0.585864 66.3896 0.438135 66.2432 0.28593 66.0925C0.000201575 65.6749 0.000201363 65.6749 0.0127689 65.245C0.270188 64.7012 0.587415 64.3662 1.01655 63.9416C1.18828 63.7701 1.36002 63.5986 1.53696 63.422C1.72671 63.2358 1.91645 63.0496 2.11194 62.8578C2.31071 62.6603 2.50947 62.4627 2.71425 62.2592C3.25915 61.7177 3.80602 61.1782 4.35328 60.6391C4.92492 60.0752 5.49472 59.5096 6.06472 58.9441C7.14428 57.8737 8.2255 56.8049 9.30732 55.7367C10.5389 54.5204 11.7686 53.3024 12.9982 52.0842C15.5274 49.5783 18.059 47.0748 20.5921 44.5728Z" fill="#1E1E1E"/>
<path d="M109.679 44.5728C110.398 44.8844 110.871 45.2732 111.424 45.8236C111.596 45.9945 111.769 46.1654 111.947 46.3415C112.134 46.5292 112.321 46.7169 112.515 46.9104C112.813 47.2066 112.813 47.2066 113.117 47.5088C113.662 48.0497 114.205 48.5919 114.748 49.1343C115.316 49.7012 115.885 50.2669 116.454 50.8327C117.531 51.9041 118.607 52.9765 119.683 54.0494C120.908 55.2708 122.134 56.4911 123.36 57.7112C125.881 60.2209 128.402 62.7321 130.921 65.2443C129.901 66.4617 128.811 67.5847 127.682 68.7017C127.491 68.8909 127.301 69.0802 127.105 69.2751C126.587 69.7897 126.068 70.3038 125.549 70.8177C125.006 71.3565 124.463 71.8958 123.919 72.4351C122.893 73.4543 121.866 74.473 120.838 75.4915C119.668 76.6518 118.498 77.8127 117.328 78.9737C114.923 81.3602 112.518 83.7459 110.112 86.1312C109.285 85.7479 108.759 85.2692 108.112 84.6237C108.002 84.5145 107.892 84.4052 107.779 84.2926C107.416 83.9324 107.056 83.5708 106.695 83.2091C106.444 82.9586 106.192 82.7081 105.941 82.4578C105.28 81.7996 104.62 81.1401 103.961 80.4804C103.287 79.807 102.613 79.1349 101.938 78.4626C100.615 77.1441 99.2942 75.8242 97.9738 74.5034C98.3764 73.6355 98.9551 73.0429 99.6351 72.3804C99.7547 72.2621 99.8744 72.1439 99.9977 72.022C100.379 71.6459 100.761 71.2713 101.144 70.8967C101.403 70.6413 101.662 70.3859 101.921 70.1304C102.555 69.5054 103.19 68.8818 103.826 68.2589C104.673 68.6 105.24 69.1776 105.869 69.815C105.978 69.9243 106.087 70.0336 106.2 70.1462C106.548 70.4941 106.894 70.8434 107.24 71.1927C107.476 71.4295 107.713 71.6661 107.949 71.9027C108.527 72.4813 109.103 73.0614 109.679 73.6421C110.369 73.3395 110.83 72.9812 111.36 72.451C111.517 72.2958 111.673 72.1406 111.834 71.9808C112 71.8134 112.166 71.6461 112.337 71.4737C112.509 71.3022 112.681 71.1308 112.859 70.9541C113.407 70.4066 113.954 69.8576 114.502 69.3086C114.873 68.937 115.245 68.5655 115.618 68.1941C116.529 67.2837 117.44 66.3722 118.349 65.4596C117.416 64.351 116.437 63.3155 115.404 62.2978C115.176 62.0716 115.176 62.0716 114.943 61.8408C114.462 61.3643 113.981 60.8886 113.499 60.4129C113.171 60.0878 112.843 59.7627 112.514 59.4376C111.714 58.6451 110.913 57.8532 110.112 57.0618C109.401 57.3711 108.931 57.7516 108.384 58.2963C108.215 58.4636 108.046 58.6309 107.872 58.8032C107.688 58.9869 107.505 59.1706 107.316 59.3599C107.122 59.5532 106.927 59.7464 106.726 59.9456C106.193 60.4749 105.662 61.0055 105.13 61.5364C104.575 62.0912 104.018 62.6449 103.461 63.1986C102.407 64.2471 101.354 65.2966 100.301 66.3466C99.1026 67.542 97.9028 68.7362 96.703 69.9303C94.2351 72.3864 91.7688 74.8441 89.3035 77.3027C88.4299 76.9028 87.8333 76.3279 87.1664 75.6524C87.0474 75.5335 86.9283 75.4146 86.8057 75.2922C86.427 74.9136 86.0499 74.5336 85.6729 74.1535C85.4158 73.896 85.1587 73.6386 84.9015 73.3814C84.2724 72.7516 83.6446 72.1206 83.0176 71.4888C83.3585 70.6722 83.8728 70.1555 84.4989 69.5348C84.6064 69.4277 84.7139 69.3205 84.8246 69.2101C85.1847 68.8517 85.5463 68.4949 85.9079 68.138C86.1665 67.8812 86.4249 67.6244 86.6833 67.3675C87.385 66.6704 88.0879 65.9745 88.7912 65.279C89.5259 64.5518 90.2593 63.8234 90.9929 63.0951C92.3823 61.7163 93.7728 60.3385 95.1636 58.9611C96.747 57.393 98.3292 55.8236 99.9113 54.2541C103.166 51.0257 106.422 47.7987 109.679 44.5728Z" fill="#1E1E1E"/>
<path d="M414.873 78.164C418.983 78.149 423.092 78.1375 427.202 78.1306C429.11 78.1272 431.018 78.1227 432.927 78.1153C434.591 78.1088 436.255 78.1047 437.919 78.1033C438.8 78.1024 439.68 78.1005 440.56 78.0957C441.391 78.0913 442.221 78.09 443.052 78.091C443.355 78.0908 443.658 78.0895 443.961 78.087C446.904 78.064 449.442 78.3938 451.659 80.4452C454.513 83.4964 454.578 87.8602 454.58 91.7836C454.583 92.0464 454.586 92.3093 454.588 92.5801C454.594 95.9417 454.366 99.7083 451.939 102.281C450.973 103.232 449.894 104.219 448.47 104.219C448.47 104.361 448.47 104.503 448.47 104.649C448.712 104.658 448.953 104.667 449.202 104.676C450.678 104.862 451.926 105.656 452.9 106.749C453.604 108.203 453.923 109.632 454.11 111.232C454.129 111.39 454.147 111.548 454.167 111.711C454.387 113.699 454.468 115.693 454.553 117.69C454.579 118.26 454.604 118.83 454.63 119.399C454.646 119.749 454.662 120.099 454.677 120.449C454.752 122.147 454.866 123.839 454.973 125.536C457.405 125.536 459.837 125.536 462.343 125.536C462.343 126.886 462.343 128.237 462.343 129.628C460.943 129.644 459.543 129.655 458.142 129.663C457.666 129.666 457.19 129.671 456.714 129.676C456.029 129.684 455.344 129.688 454.659 129.691C454.34 129.696 454.34 129.696 454.015 129.701C452.13 129.701 452.13 129.701 451.288 128.982C450.669 127.873 450.504 126.855 450.408 125.604C450.391 125.41 450.374 125.216 450.357 125.016C450.236 123.492 450.168 121.967 450.105 120.44C450.096 120.234 450.087 120.029 450.078 119.817C450.035 118.776 449.995 117.736 449.96 116.695C449.947 112.146 449.947 112.146 448.254 108.095C446.795 106.889 445.415 106.772 443.562 106.759C443.373 106.756 443.183 106.754 442.988 106.752C442.378 106.745 441.768 106.74 441.157 106.735C440.78 106.731 440.402 106.727 440.024 106.722C438.627 106.708 437.229 106.695 435.831 106.682C432.706 106.651 429.581 106.619 426.361 106.587C426.361 112.841 426.361 119.094 426.361 125.536C428.936 125.536 431.511 125.536 434.164 125.536C434.164 126.886 434.164 128.237 434.164 129.628C427.798 129.628 421.432 129.628 414.873 129.628C414.873 128.277 414.873 126.927 414.873 125.536C417.234 125.536 419.594 125.536 422.026 125.536C422.026 111.325 422.026 97.1129 422.026 82.4706C419.666 82.4706 417.305 82.4706 414.873 82.4706C414.873 81.0494 414.873 79.6283 414.873 78.164ZM426.361 82.4706C426.361 89.008 426.361 95.5453 426.361 102.281C429.289 102.29 432.218 102.299 435.235 102.308C436.156 102.312 437.078 102.316 438.027 102.32C438.86 102.321 438.86 102.321 439.692 102.322C440.06 102.323 440.429 102.324 440.797 102.326C441.358 102.329 441.918 102.33 442.479 102.33C442.721 102.332 442.721 102.332 442.969 102.334C444.984 102.327 446.731 101.927 448.254 100.558C450.852 97.3151 450.425 92.0008 449.984 88.1437C449.729 86.2118 449.077 84.6653 447.603 83.3319C446.26 82.5315 445.126 82.4394 443.586 82.4462C443.397 82.4461 443.208 82.4461 443.013 82.4461C442.402 82.4462 441.79 82.4479 441.179 82.4496C440.801 82.4499 440.423 82.4501 440.045 82.4502C438.645 82.4514 437.245 82.4544 435.844 82.4571C432.715 82.4616 429.585 82.466 426.361 82.4706Z" fill="#1E1E1E"/>
<path d="M176.224 78.1641C182.59 78.1641 188.956 78.1641 195.515 78.1641C195.515 79.5852 195.515 81.0064 195.515 82.4706C192.94 82.4706 190.365 82.4706 187.712 82.4706C187.73 86.5122 187.751 90.5537 187.774 94.5953C187.785 96.4724 187.795 98.3494 187.803 100.227C187.81 101.865 187.819 103.504 187.829 105.142C187.835 106.008 187.84 106.873 187.843 107.738C187.374 116.446 187.374 116.446 190.57 124.11C193.041 125.528 196.081 125.355 198.847 125.35C199.213 125.35 199.213 125.35 199.586 125.35C200.097 125.35 200.608 125.35 201.119 125.349C201.893 125.348 202.667 125.349 203.441 125.35C208.702 125.647 208.702 125.647 213.478 123.936C216.448 120.867 215.918 114.975 215.935 111.047C215.937 110.733 215.939 110.418 215.941 110.104C215.947 109.261 215.952 108.419 215.956 107.577C215.961 106.692 215.967 105.807 215.972 104.923C215.983 103.253 215.993 101.583 216.002 99.9129C216.013 98.0095 216.025 96.1062 216.037 94.2028C216.062 90.2921 216.085 86.3814 216.107 82.4706C213.532 82.4706 210.957 82.4706 208.304 82.4706C208.304 81.0495 208.304 79.6283 208.304 78.1641C214.67 78.1641 221.036 78.1641 227.595 78.1641C227.595 79.5852 227.595 81.0064 227.595 82.4706C225.235 82.4706 222.874 82.4706 220.442 82.4706C220.444 83.4209 220.447 84.3711 220.449 85.3502C220.456 88.5087 220.461 91.6671 220.465 94.8256C220.467 96.7384 220.47 98.6512 220.475 100.564C220.479 102.234 220.482 103.904 220.483 105.574C220.483 106.456 220.485 107.337 220.488 108.219C220.542 123.762 220.542 123.762 216.822 127.695C214.872 129.361 212.22 129.694 209.736 129.687C209.546 129.688 209.355 129.689 209.159 129.69C208.536 129.693 207.912 129.693 207.289 129.692C206.852 129.693 206.414 129.694 205.976 129.695C205.061 129.697 204.146 129.697 203.231 129.696C202.065 129.694 200.898 129.698 199.732 129.703C198.828 129.706 197.925 129.706 197.021 129.706C196.592 129.706 196.162 129.707 195.732 129.709C189.28 129.738 189.28 129.738 187.042 127.71C182.266 122.691 183.343 113.935 183.355 107.533C183.356 106.649 183.356 105.766 183.356 104.883C183.357 103.216 183.359 101.549 183.361 99.8819C183.363 97.9816 183.365 96.0814 183.366 94.1811C183.368 90.2776 183.372 86.3741 183.377 82.4706C181.016 82.4706 178.656 82.4706 176.224 82.4706C176.224 81.0495 176.224 79.6283 176.224 78.1641Z" fill="#1E1E1E"/>
<path d="M479.729 78.1296C479.926 78.1286 480.123 78.1275 480.326 78.1264C480.975 78.1233 481.624 78.1218 482.273 78.1206C482.726 78.1194 483.18 78.1181 483.633 78.1169C484.584 78.1146 485.535 78.1134 486.486 78.1126C487.698 78.1114 488.911 78.1063 490.124 78.1001C491.061 78.0961 491.998 78.095 492.935 78.0947C493.382 78.094 493.829 78.0923 494.276 78.0894C500.615 78.052 500.615 78.052 502.876 80.1023C505.239 82.8819 505.311 86.3737 505.396 89.8594C505.404 90.1474 505.413 90.4355 505.422 90.7236C505.442 91.4179 505.46 92.1123 505.477 92.8067C503.975 92.8067 502.473 92.8067 500.926 92.8067C500.915 92.4611 500.904 92.1155 500.893 91.7595C500.877 91.2966 500.861 90.8337 500.844 90.3708C500.834 90.0308 500.834 90.0308 500.824 89.684C500.71 86.2728 500.71 86.2728 498.907 83.4937C497.704 82.7155 496.433 82.6224 495.031 82.6271C494.775 82.6254 494.775 82.6254 494.513 82.6238C493.953 82.6208 493.392 82.621 492.832 82.6215C492.44 82.6206 492.048 82.6197 491.655 82.6187C490.835 82.6171 490.014 82.6171 489.194 82.6183C488.146 82.6195 487.098 82.6159 486.049 82.6109C485.24 82.6077 484.43 82.6075 483.621 82.6082C483.234 82.6081 482.848 82.6069 482.462 82.6048C481.92 82.6021 481.379 82.6036 480.837 82.6061C480.68 82.6044 480.522 82.6028 480.36 82.6011C478.927 82.6155 477.792 83.0122 476.595 83.7898C475.058 85.386 474.883 87.3362 474.871 89.464C474.869 89.7245 474.869 89.7245 474.867 89.9903C474.865 90.3569 474.863 90.7236 474.863 91.0902C474.861 91.6431 474.854 92.1958 474.847 92.7486C474.776 96.1209 474.776 96.1209 476.039 99.1723C477.22 100.189 478.688 100.453 480.196 100.66C480.47 100.699 480.47 100.699 480.748 100.739C484.185 101.21 487.651 101.496 491.104 101.823C502.082 102.864 502.082 102.864 504.367 105.228C506.588 108.006 506.42 111.678 506.413 115.04C506.412 115.681 506.417 116.322 506.423 116.963C506.436 120.736 506.299 124.668 503.554 127.582C501.632 129.331 499.428 129.693 496.9 129.687C496.566 129.689 496.566 129.689 496.224 129.69C495.491 129.693 494.758 129.693 494.025 129.693C493.513 129.693 493 129.694 492.488 129.695C491.415 129.697 490.343 129.697 489.271 129.696C487.9 129.695 486.529 129.698 485.159 129.703C484.101 129.706 483.043 129.707 481.985 129.706C481.48 129.706 480.975 129.707 480.47 129.709C479.762 129.712 479.054 129.71 478.346 129.708C478.14 129.71 477.933 129.711 477.721 129.713C475.525 129.696 473.554 129.142 471.88 127.69C469.385 124.957 469.46 121.124 469.482 117.664C469.483 117.361 469.484 117.059 469.485 116.756C469.488 116.023 469.492 115.289 469.496 114.555C470.855 114.555 472.214 114.555 473.614 114.555C473.749 115.357 473.858 116.038 473.884 116.832C473.891 117.01 473.898 117.188 473.905 117.372C473.912 117.557 473.919 117.742 473.926 117.933C474.012 121.44 474.012 121.44 475.863 124.298C477.436 125.34 479.34 125.354 481.174 125.353C481.416 125.354 481.416 125.354 481.662 125.355C482.189 125.357 482.716 125.357 483.243 125.357C483.613 125.358 483.984 125.359 484.354 125.36C485.129 125.361 485.903 125.361 486.678 125.361C487.664 125.361 488.65 125.364 489.637 125.368C490.401 125.37 491.166 125.371 491.931 125.371C492.294 125.371 492.657 125.372 493.021 125.373C497.136 125.521 497.136 125.521 500.709 123.814C501.39 122.744 501.601 121.786 501.614 120.536C501.617 120.312 501.62 120.087 501.623 119.856C501.624 119.615 501.626 119.374 501.627 119.126C501.63 118.752 501.63 118.752 501.633 118.371C501.636 117.844 501.638 117.317 501.64 116.791C501.644 115.986 501.653 115.181 501.663 114.377C501.665 113.865 501.667 113.353 501.668 112.841C501.674 112.48 501.674 112.48 501.68 112.113C501.676 110.82 501.657 109.932 500.709 108.956C499.499 108.078 498.328 107.871 496.864 107.664C496.514 107.612 496.514 107.612 496.157 107.558C492.498 107.027 488.814 106.657 485.138 106.265C484.313 106.177 483.489 106.086 482.665 105.994C482.357 105.96 482.049 105.927 481.741 105.895C478.013 105.508 474.483 104.722 471.88 101.85C470.03 99.0783 470.106 95.697 470.106 92.493C470.105 92.0173 470.101 91.5417 470.097 91.066C470.082 87.1994 470.346 83.1526 473.092 80.157C474.944 78.4209 477.29 78.1328 479.729 78.1296Z" fill="#1E1E1E"/>
<path d="M367.403 78.1641C380.493 78.1641 393.583 78.1641 407.07 78.1641C407.07 81.717 407.07 85.2699 407.07 88.9305C405.639 88.9305 404.209 88.9305 402.735 88.9305C402.735 86.7987 402.735 84.667 402.735 82.4706C394.866 82.4706 386.998 82.4706 378.891 82.4706C378.891 88.5106 378.891 94.5506 378.891 100.774C384.9 100.774 390.908 100.774 397.099 100.774C397.099 102.195 397.099 103.616 397.099 105.08C391.091 105.08 385.082 105.08 378.891 105.08C378.891 111.831 378.891 118.581 378.891 125.536C386.76 125.536 394.628 125.536 402.735 125.536C402.735 123.262 402.735 120.989 402.735 118.646C404.165 118.646 405.596 118.646 407.07 118.646C407.07 122.27 407.07 125.894 407.07 129.628C393.98 129.628 380.89 129.628 367.403 129.628C367.403 128.277 367.403 126.927 367.403 125.536C369.764 125.536 372.124 125.536 374.556 125.536C374.556 111.325 374.556 97.113 374.556 82.4706C372.196 82.4706 369.835 82.4706 367.403 82.4706C367.403 81.0495 367.403 79.6283 367.403 78.1641Z" fill="#1E1E1E"/>
<path d="M311.48 78.1641C317.632 78.1641 323.784 78.1641 330.122 78.1641C330.122 79.5852 330.122 81.0064 330.122 82.4706C326.688 82.5772 326.688 82.5772 323.185 82.686C323.518 83.7455 323.851 84.8049 324.194 85.8965C326.593 93.5383 328.992 101.181 331.365 108.83C331.843 110.371 332.322 111.911 332.801 113.451C333.208 114.759 333.615 116.068 334.022 117.377C334.269 118.175 334.518 118.973 334.766 119.771C334.998 120.514 335.229 121.258 335.46 122.002C335.586 122.41 335.713 122.818 335.841 123.225C335.916 123.468 335.991 123.71 336.068 123.96C336.134 124.172 336.2 124.384 336.268 124.602C336.408 125.106 336.408 125.106 336.408 125.536C336.837 125.536 337.266 125.536 337.708 125.536C337.73 125.332 337.752 125.128 337.775 124.917C337.928 123.867 338.257 122.883 338.584 121.876C338.653 121.662 338.721 121.448 338.792 121.227C338.942 120.758 339.092 120.29 339.243 119.822C339.619 118.653 339.992 117.483 340.365 116.313C340.454 116.033 340.544 115.753 340.633 115.474C341.702 112.125 342.746 108.769 343.79 105.412C344.241 103.964 344.692 102.515 345.144 101.066C345.194 100.906 345.244 100.745 345.296 100.579C346.506 96.6981 347.728 92.8207 348.952 88.9439C349.003 88.7837 349.054 88.6235 349.106 88.4585C349.713 86.5342 350.322 84.61 350.93 82.686C347.711 82.5794 347.711 82.5794 344.428 82.4706C344.428 81.0495 344.428 79.6283 344.428 78.1641C350.436 78.1641 356.445 78.1641 362.635 78.1641C362.635 79.5852 362.635 81.0064 362.635 82.4706C360.418 82.4706 358.2 82.4706 355.916 82.4706C355.701 83.3233 355.486 84.176 355.265 85.0546C355.107 85.5786 354.943 86.1008 354.769 86.62C354.724 86.7567 354.678 86.8933 354.632 87.0341C354.484 87.4787 354.335 87.9228 354.186 88.3669C354.08 88.6859 353.974 89.0049 353.867 89.3239C353.643 89.9995 353.418 90.675 353.192 91.3503C352.595 93.1364 352.002 94.9237 351.409 96.7109C351.35 96.8887 351.291 97.0664 351.23 97.2496C350.245 100.213 349.28 103.182 348.329 106.157C346.914 110.58 345.465 114.992 344.008 119.402C343.833 119.933 343.658 120.464 343.483 120.996C343.206 121.836 342.928 122.676 342.65 123.515C342.547 123.826 342.445 124.137 342.343 124.448C340.798 129.137 340.798 129.137 340.079 129.865C339.075 130.17 338.101 130.151 337.058 130.139C336.738 130.143 336.738 130.143 336.411 130.147C334.352 130.138 334.352 130.138 333.59 129.412C332.856 128.091 332.37 126.743 331.906 125.309C331.831 125.078 331.755 124.847 331.676 124.609C331.428 123.851 331.181 123.092 330.934 122.333C330.76 121.799 330.585 121.265 330.41 120.731C329.143 116.856 327.893 112.977 326.647 109.095C325.617 105.886 324.567 102.683 323.51 99.4816C322.311 95.8452 321.117 92.2072 319.938 88.5641C319.783 88.0845 319.627 87.605 319.471 87.1256C319.256 86.4644 319.042 85.8029 318.829 85.1412C318.765 84.9446 318.701 84.748 318.635 84.5455C318.577 84.3657 318.519 84.1859 318.46 84.0006C318.409 83.8445 318.359 83.6885 318.307 83.5277C318.2 83.1166 318.2 83.1166 318.2 82.4706C315.983 82.4706 313.765 82.4706 311.48 82.4706C311.48 81.0495 311.48 79.6283 311.48 78.1641Z" fill="#1E1E1E"/>
<path d="M74.3159 68.2741C74.9809 68.5598 75.3786 68.988 75.8898 69.4974C75.9986 69.6049 76.1073 69.7123 76.2193 69.8231C76.5836 70.1839 76.9456 70.547 77.3076 70.9102C77.5681 71.1692 77.8288 71.428 78.0896 71.6867C78.7977 72.39 79.5037 73.0952 80.2095 73.8007C80.9471 74.5376 81.6867 75.2726 82.426 76.0078C83.8259 77.4006 85.2242 78.795 86.622 80.19C88.2132 81.7779 89.8063 83.364 91.3995 84.95C94.6771 88.2127 97.9523 91.4778 101.226 94.7443C100.206 95.9617 99.1164 97.0847 97.9871 98.2017C97.7966 98.3909 97.6061 98.5802 97.4099 98.7751C96.8918 99.2897 96.3732 99.8038 95.8544 100.318C95.3107 100.856 94.7676 101.396 94.2245 101.935C93.1979 102.954 92.1706 103.973 91.1432 104.991C89.9728 106.152 88.8029 107.313 87.6332 108.474C85.2286 110.86 82.8232 113.246 80.4173 115.631C79.5956 115.249 79.0619 114.774 78.4138 114.137C78.2481 113.976 78.2481 113.976 78.0792 113.81C77.7157 113.455 77.354 113.097 76.9924 112.739C76.7404 112.491 76.4884 112.243 76.2364 111.994C75.7093 111.474 75.1831 110.953 74.6573 110.431C73.9825 109.762 73.3042 109.096 72.625 108.432C72.1039 107.92 71.5851 107.407 71.0671 106.892C70.8179 106.645 70.5679 106.4 70.3169 106.155C69.9671 105.813 69.6208 105.468 69.2753 105.122C69.0771 104.927 68.879 104.731 68.6749 104.529C68.2789 104.003 68.2789 104.003 68.2933 103.54C68.6291 102.88 69.1509 102.39 69.6718 101.873C69.8486 101.695 69.8486 101.695 70.0291 101.513C70.2784 101.263 70.5286 101.014 70.7796 100.765C71.1639 100.384 71.5434 99.9979 71.9227 99.6115C72.1656 99.3691 72.4087 99.127 72.6522 98.8852C72.7656 98.769 72.8789 98.6528 72.9958 98.5332C73.779 97.7697 73.779 97.7697 74.3506 97.7242C74.9948 98.0978 75.4891 98.5982 76.0043 99.1257C76.1185 99.2401 76.2328 99.3545 76.3505 99.4724C76.7142 99.8373 77.0756 100.204 77.4369 100.572C77.6835 100.82 77.9301 101.068 78.177 101.316C78.781 101.923 79.3829 102.532 79.9838 103.142C80.6737 102.84 81.1356 102.481 81.6656 101.951C81.8218 101.796 81.9779 101.641 82.1388 101.481C82.305 101.313 82.4712 101.146 82.6425 100.974C82.9004 100.717 82.9004 100.717 83.1636 100.454C83.7123 99.9066 84.2595 99.3576 84.8067 98.8086C85.1786 98.437 85.5505 98.0655 85.9226 97.6941C86.8343 96.7837 87.7446 95.8721 88.6541 94.9596C87.6479 93.757 86.5721 92.6528 85.4515 91.5554C85.2649 91.3718 85.0783 91.1881 84.8861 90.9989C84.4832 90.6024 84.0802 90.2061 83.6769 89.81C83.0394 89.1838 82.4033 88.5563 81.7674 87.9285C81.5491 87.713 81.3308 87.4975 81.1125 87.2819C81.0033 87.1741 80.8941 87.0663 80.7816 86.9552C79.303 85.4956 77.8234 84.037 76.3407 82.5814C75.3376 81.5966 74.3364 80.6099 73.3374 79.621C72.8093 79.0984 72.2802 78.5769 71.7488 78.0577C71.1579 77.4802 70.5711 76.8987 69.9847 76.3167C69.719 76.0591 69.719 76.0591 69.448 75.7964C69.2897 75.6379 69.1314 75.4795 68.9683 75.3162C68.8291 75.1792 68.6899 75.0423 68.5465 74.9011C68.2789 74.5034 68.2789 74.5034 68.3125 74.0592C68.6132 73.3746 69.1476 72.8937 69.6718 72.3728C69.7897 72.2541 69.9076 72.1353 70.0291 72.0129C70.2784 71.7629 70.5286 71.5137 70.7796 71.2653C71.1639 70.8838 71.5434 70.4979 71.9227 70.1115C72.1656 69.8691 72.4087 69.627 72.6522 69.3852C72.7656 69.269 72.8789 69.1528 72.9958 69.0332C73.7947 68.2543 73.7947 68.2543 74.3159 68.2741Z" fill="#1E1E1E"/>
<path d="M50.2881 15.0728C51.1099 15.4545 51.6435 15.9301 52.2917 16.5665C52.4021 16.6744 52.5125 16.7823 52.6262 16.8934C52.9897 17.2493 53.3515 17.6068 53.713 17.9645C53.965 18.2129 54.217 18.4613 54.469 18.7096C54.9962 19.2298 55.5224 19.7509 56.0481 20.2725C56.7229 20.9417 57.4012 21.6074 58.0804 22.2723C58.6016 22.7837 59.1203 23.2974 59.6384 23.8118C59.8875 24.0584 60.1376 24.3041 60.3885 24.5489C60.7383 24.8907 61.0846 25.2357 61.4302 25.5817C61.6283 25.7774 61.8264 25.9731 62.0305 26.1747C62.4265 26.7005 62.4265 26.7005 62.4122 27.1639C62.0764 27.824 61.5545 28.3134 61.0337 28.8311C60.9157 28.9498 60.7978 29.0686 60.6763 29.191C60.427 29.441 60.1768 29.6902 59.9258 29.9386C59.5415 30.3201 59.1621 30.706 58.7827 31.0924C58.5398 31.3348 58.2967 31.5769 58.0533 31.8187C57.9399 31.9349 57.8265 32.0511 57.7097 32.1707C56.9265 32.9342 56.9265 32.9342 56.3548 32.9797C55.7107 32.6061 55.2164 32.1057 54.7011 31.5782C54.5869 31.4638 54.4727 31.3494 54.355 31.2315C53.9912 30.8666 53.6299 30.4995 53.2685 30.1323C53.022 29.8841 52.7753 29.6362 52.5285 29.3883C51.9245 28.7812 51.3225 28.172 50.7216 27.5618C50.0318 27.8644 49.5699 28.2227 49.0398 28.7529C48.8837 28.9081 48.7275 29.0633 48.5666 29.2231C48.4004 29.3905 48.2342 29.5578 48.0629 29.7302C47.805 29.9874 47.805 29.9874 47.5418 30.2498C46.9931 30.7973 46.4459 31.3463 45.8988 31.8953C45.5269 32.2669 45.1549 32.6384 44.7828 33.0098C43.8712 33.9202 42.9609 34.8318 42.0513 35.7443C43.0576 36.9469 44.1333 38.0511 45.2539 39.1485C45.4405 39.3321 45.6271 39.5158 45.8193 39.705C46.2222 40.1015 46.6253 40.4978 47.0285 40.8939C47.666 41.5201 48.3022 42.1476 48.938 42.7754C49.1563 42.9909 49.3746 43.2065 49.5929 43.422C49.7021 43.5298 49.8113 43.6376 49.9239 43.7487C51.4025 45.2083 52.8821 46.6669 54.3647 48.1225C55.3679 49.1073 56.3691 50.094 57.3681 51.0829C57.8962 51.6055 58.4252 52.127 58.9566 52.6462C59.5476 53.2237 60.1343 53.8052 60.7208 54.3872C60.8978 54.5589 61.0749 54.7306 61.2574 54.9075C61.4949 55.1452 61.4949 55.1452 61.7372 55.3877C61.8763 55.5247 62.0155 55.6616 62.1589 55.8028C62.4265 56.2005 62.4265 56.2005 62.393 56.6447C62.0922 57.3293 61.5578 57.8102 61.0337 58.3311C60.9157 58.4498 60.7978 58.5686 60.6763 58.691C60.427 58.941 60.1768 59.1902 59.9258 59.4386C59.5415 59.8201 59.1621 60.206 58.7827 60.5924C58.5398 60.8348 58.2967 61.0769 58.0533 61.3187C57.9399 61.4349 57.8265 61.5511 57.7097 61.6707C57.3832 61.989 57.3832 61.989 56.7908 62.445C55.8963 62.4092 55.4286 61.8201 54.8224 61.2204C54.7144 61.1145 54.6064 61.0085 54.4951 60.8993C54.1333 60.5435 53.7738 60.1853 53.4143 59.8272C53.1556 59.5717 52.8967 59.3164 52.6377 59.0612C51.9344 58.3673 51.2333 57.6714 50.5326 56.975C49.9481 56.3943 49.3627 55.8146 48.7773 55.2349C47.3969 53.8678 46.0184 52.4989 44.6408 51.129C43.2179 49.714 41.7918 48.3022 40.3641 46.8919C39.1397 45.6821 37.9173 44.4703 36.6966 43.2568C35.967 42.5315 35.2365 41.8071 34.504 41.0847C33.8157 40.4057 33.1301 39.7242 32.4464 39.0407C32.1946 38.7898 31.9418 38.5397 31.688 38.2907C31.3428 37.9516 31.001 37.6094 30.66 37.2662C30.4675 37.0751 30.275 36.8841 30.0767 36.6872C29.6962 36.1749 29.6962 36.1749 29.6943 35.7306C29.9685 35.2076 30.2913 34.8584 30.7125 34.4416C30.8842 34.2701 31.056 34.0986 31.2329 33.922C31.4227 33.7358 31.6124 33.5496 31.8079 33.3578C32.0067 33.1603 32.2054 32.9627 32.4102 32.7592C32.9551 32.2177 33.502 31.6782 34.0492 31.1391C34.6209 30.5752 35.1907 30.0096 35.7607 29.4441C36.8403 28.3737 37.9215 27.3049 39.0033 26.2367C40.2348 25.0204 41.4646 23.8024 42.6941 22.5842C45.2234 20.0783 47.755 17.5748 50.2881 15.0728Z" fill="#1E1E1E"/>
<path d="M590.013 78.1641C596.164 78.1641 602.316 78.1641 608.654 78.1641C608.654 79.5852 608.654 81.0064 608.654 82.4706C605.22 82.5772 605.22 82.5772 601.718 82.686C603.622 85.9344 605.535 89.1687 607.53 92.3631C608.907 94.5728 610.24 96.8072 611.568 99.0461C611.732 99.3234 611.897 99.6006 612.062 99.8778C612.14 100.01 612.219 100.143 612.3 100.279C612.92 101.318 613.572 102.334 614.242 103.342C614.506 103.788 614.506 103.788 614.506 104.219C615.105 103.683 615.483 103.087 615.897 102.403C616.042 102.164 616.187 101.925 616.336 101.679C616.494 101.418 616.652 101.156 616.809 100.895C616.974 100.623 617.139 100.351 617.304 100.079C617.647 99.5144 617.99 98.9493 618.332 98.384C619.037 97.2204 619.747 96.06 620.457 94.8995C620.837 94.278 621.217 93.6561 621.597 93.0343C621.711 92.8488 621.711 92.8488 621.827 92.6595C622.307 91.8735 622.787 91.0875 623.267 90.3014C623.596 89.7629 623.925 89.2244 624.254 88.686C624.481 88.3135 624.709 87.9409 624.936 87.5683C625.933 85.9368 626.938 84.3114 627.945 82.686C625.656 82.6149 623.367 82.5438 621.009 82.4706C621.009 81.0495 621.009 79.6283 621.009 78.1641C626.946 78.1641 632.883 78.1641 639 78.1641C639 79.5852 639 81.0064 639 82.4706C636.925 82.4706 634.851 82.4706 632.714 82.4706C632.571 82.8259 632.428 83.1812 632.28 83.5473C632.123 83.8247 631.957 84.0977 631.783 84.3657C631.684 84.5201 631.585 84.6745 631.483 84.8335C631.375 84.9997 631.267 85.1659 631.156 85.3372C630.919 85.7055 630.683 86.0739 630.446 86.4424C630.321 86.6371 630.196 86.8317 630.067 87.0323C629.403 88.0694 628.749 89.1124 628.094 90.1552C627.817 90.5956 627.54 91.0361 627.264 91.4766C627.056 91.8065 627.056 91.8065 626.845 92.1431C626.03 93.4403 625.213 94.7369 624.397 96.0337C623.712 97.1237 623.026 98.2137 622.341 99.3041C621.047 101.362 619.752 103.419 618.449 105.47C618.341 105.64 618.233 105.81 618.122 105.985C617.717 106.621 617.311 107.253 616.891 107.879C616.844 108.451 616.823 109.001 616.821 109.574C616.819 109.746 616.817 109.918 616.815 110.096C616.808 110.665 616.804 111.235 616.801 111.805C616.797 112.2 616.793 112.595 616.788 112.99C616.777 114.029 616.768 115.069 616.76 116.109C616.752 117.17 616.741 118.231 616.73 119.291C616.709 121.373 616.691 123.455 616.674 125.536C619.177 125.536 621.681 125.536 624.26 125.536C624.26 126.886 624.26 128.237 624.26 129.628C617.823 129.628 611.385 129.628 604.752 129.628C604.752 128.277 604.752 126.927 604.752 125.536C607.327 125.536 609.902 125.536 612.555 125.536C612.593 122.536 612.593 122.536 612.605 119.536C612.605 118.309 612.608 117.082 612.628 115.855C612.888 109.689 612.888 109.689 610.082 104.407C609.44 103.655 608.95 102.799 608.437 101.958C608.316 101.768 608.195 101.577 608.07 101.381C607.547 100.558 607.024 99.7353 606.501 98.9121C605.344 97.0898 604.183 95.2698 603.018 93.4524C601.962 91.8044 600.907 90.1552 599.859 88.502C599.296 87.6138 598.73 86.7275 598.16 85.8436C598.039 85.6553 597.918 85.467 597.793 85.273C597.56 84.91 597.326 84.5475 597.091 84.1855C596.987 84.0235 596.883 83.8614 596.776 83.6945C596.684 83.5514 596.591 83.4083 596.496 83.2608C596.299 82.9013 596.299 82.9013 596.299 82.4706C594.224 82.4706 592.15 82.4706 590.013 82.4706C590.013 81.0495 590.013 79.6283 590.013 78.1641Z" fill="#1E1E1E"/>
<path d="M541.242 78.1641C555.334 78.1641 569.425 78.1641 583.943 78.1641C583.943 82.7118 583.943 87.2595 583.943 91.9451C582.513 91.9451 581.082 91.9451 579.608 91.9451C579.608 88.5343 579.608 85.1235 579.608 81.6093C574.744 81.6093 569.88 81.6093 564.869 81.6093C564.869 96.1052 564.869 110.601 564.869 125.536C567.372 125.536 569.876 125.536 572.455 125.536C572.455 126.886 572.455 128.237 572.455 129.628C565.946 129.628 559.437 129.628 552.73 129.628C552.73 128.277 552.73 126.927 552.73 125.536C555.305 125.536 557.88 125.536 560.534 125.536C560.534 111.04 560.534 96.5445 560.534 81.6093C555.598 81.6093 550.662 81.6093 545.577 81.6093C545.577 85.0201 545.577 88.4309 545.577 91.9451C544.147 91.9451 542.716 91.9451 541.242 91.9451C541.242 87.3973 541.242 82.8496 541.242 78.1641Z" fill="#1E1E1E"/>
<path d="M514.581 78.1641C521.019 78.1641 527.456 78.1641 534.089 78.1641C534.089 79.5852 534.089 81.0064 534.089 82.4706C531.657 82.4706 529.225 82.4706 526.719 82.4706C526.719 96.6823 526.719 110.894 526.719 125.536C529.151 125.536 531.583 125.536 534.089 125.536C534.089 126.886 534.089 128.237 534.089 129.628C527.652 129.628 521.214 129.628 514.581 129.628C514.581 128.277 514.581 126.927 514.581 125.536C517.085 125.536 519.588 125.536 522.168 125.536C522.168 111.325 522.168 97.113 522.168 82.4706C519.664 82.4706 517.16 82.4706 514.581 82.4706C514.581 81.0495 514.581 79.6283 514.581 78.1641Z" fill="#1E1E1E"/>
<path d="M286.986 78.1641C293.424 78.1641 299.862 78.1641 306.494 78.1641C306.494 79.5852 306.494 81.0064 306.494 82.4706C304.062 82.4706 301.63 82.4706 299.125 82.4706C299.125 96.6823 299.125 110.894 299.125 125.536C301.557 125.536 303.989 125.536 306.494 125.536C306.494 126.886 306.494 128.237 306.494 129.628C300.057 129.628 293.619 129.628 286.986 129.628C286.986 128.277 286.986 126.927 286.986 125.536C289.561 125.536 292.136 125.536 294.79 125.536C294.79 111.325 294.79 97.113 294.79 82.4706C292.215 82.4706 289.639 82.4706 286.986 82.4706C286.986 81.0495 286.986 79.6283 286.986 78.1641Z" fill="#1E1E1E"/>
<path d="M71.0963 53.4014C71.97 53.8013 72.5666 54.3762 73.2334 55.0517C73.412 55.23 73.412 55.23 73.5942 55.4119C73.9728 55.7904 74.35 56.1705 74.727 56.5505C74.984 56.808 75.2412 57.0654 75.4984 57.3227C76.1275 57.9524 76.7553 58.5835 77.3823 59.2152C77.0863 59.8737 76.7514 60.3261 76.2383 60.8341C76.0918 60.9802 75.9453 61.1264 75.7944 61.2769C75.6338 61.4349 75.4732 61.5929 75.3078 61.7556C75.1386 61.9238 74.9694 62.0919 74.7951 62.2652C74.2355 62.8208 73.6743 63.3748 73.1132 63.9289C72.725 64.3138 72.3368 64.6988 71.9487 65.0839C71.0314 65.9937 70.1131 66.9025 69.1944 67.8109C68.1483 68.8453 67.1034 69.8809 66.0586 70.9166C63.9099 73.0467 61.7596 75.1753 59.6082 77.3028C58.7345 76.9029 58.138 76.328 57.4711 75.6525C57.3521 75.5337 57.233 75.4148 57.1104 75.2923C56.7317 74.9138 56.3546 74.5337 55.9775 74.1536C55.7205 73.8962 55.4634 73.6388 55.2062 73.3815C54.5771 72.7518 53.9493 72.1207 53.3223 71.489C53.6183 70.8305 53.9532 70.3781 54.4662 69.8701C54.686 69.6509 54.686 69.6509 54.9102 69.4273C55.0708 69.2693 55.2314 69.1113 55.3968 68.9485C55.566 68.7804 55.7352 68.6123 55.9095 68.439C56.4691 67.8834 57.0302 67.3293 57.5914 66.7753C57.9796 66.3904 58.3678 66.0054 58.7558 65.6203C59.6732 64.7105 60.5914 63.8017 61.5102 62.8933C62.5563 61.8589 63.6012 60.8233 64.6459 59.7876C66.7947 57.6575 68.945 55.5289 71.0963 53.4014Z" fill="#1E1E1E"/>
<path d="M65.2435 112.401C66.4122 113.37 67.4964 114.396 68.5685 115.468C68.7348 115.634 68.901 115.799 69.0723 115.969C69.5983 116.493 70.1236 117.018 70.6489 117.542C71.0074 117.9 71.366 118.257 71.7246 118.614C72.5994 119.485 73.4736 120.357 74.3473 121.23C74.0339 121.944 73.6432 122.412 73.0886 122.96C72.9193 123.128 72.7501 123.296 72.5758 123.469C72.3931 123.648 72.2104 123.828 72.0222 124.012C71.8352 124.197 71.6482 124.383 71.4555 124.573C70.858 125.165 70.259 125.754 69.6599 126.344C69.2545 126.744 68.8492 127.145 68.444 127.546C67.4506 128.528 66.4559 129.509 65.4602 130.489C64.2915 129.52 63.2073 128.495 62.1352 127.422C61.969 127.257 61.8027 127.091 61.6315 126.921C61.1054 126.397 60.5801 125.873 60.0549 125.348C59.6963 124.991 59.3378 124.634 58.9791 124.276C58.1043 123.405 57.2301 122.533 56.3564 121.66C56.6698 120.946 57.0605 120.478 57.6152 119.931C57.7844 119.762 57.9536 119.594 58.1279 119.421C58.3106 119.242 58.4933 119.063 58.6815 118.878C58.8685 118.693 59.0555 118.508 59.2482 118.317C59.8458 117.726 60.4448 117.136 61.0438 116.546C61.4492 116.146 61.8545 115.745 62.2597 115.344C63.2532 114.362 64.2479 113.381 65.2435 112.401Z" fill="#1E1E1E"/>
<path d="M65.4586 0.443835C66.007 0.698335 66.3418 1.01341 66.7682 1.44111C66.9374 1.60922 67.1066 1.77734 67.2809 1.95055C67.4613 2.13313 67.6417 2.31571 67.8276 2.50382C68.014 2.68991 68.2005 2.87601 68.3925 3.06774C68.9881 3.66304 69.5814 4.26055 70.1747 4.85813C70.5779 5.26188 70.9812 5.66548 71.3847 6.06894C72.3739 7.0588 73.3613 8.05049 74.3473 9.04358C74.0339 9.75764 73.6432 10.2261 73.0886 10.7736C72.9193 10.9416 72.7501 11.1097 72.5758 11.2829C72.3931 11.4621 72.2104 11.6414 72.0222 11.826C71.8352 12.0112 71.6482 12.1964 71.4555 12.3872C70.858 12.9783 70.259 13.568 69.6599 14.1576C69.2545 14.5582 68.8492 14.9588 68.444 15.3596C67.4506 16.3418 66.4559 17.3227 65.4602 18.3027C64.2915 17.3342 63.2073 16.3085 62.1352 15.236C61.969 15.0705 61.8027 14.9051 61.6315 14.7346C61.1054 14.2108 60.5801 13.6863 60.0549 13.1617C59.6963 12.8045 59.3378 12.4473 58.9791 12.0901C58.1043 11.2187 57.2301 10.3467 56.3564 9.47424C56.6661 8.77574 57.044 8.30323 57.5815 7.7606C57.8246 7.51393 57.8246 7.51393 58.0727 7.26227C58.2479 7.08706 58.4231 6.91184 58.6036 6.73132C58.7838 6.55041 58.9639 6.3695 59.1495 6.18311C59.5305 5.80155 59.912 5.42059 60.2942 5.04019C60.8802 4.45549 61.462 3.86689 62.0438 3.27808C62.4141 2.90816 62.7847 2.53847 63.1555 2.16905C63.417 1.90296 63.417 1.90296 63.6838 1.6315C63.8472 1.47045 64.0107 1.30939 64.1791 1.14345C64.3222 1.00021 64.4653 0.856973 64.6127 0.709391C65.0267 0.430442 65.0267 0.430442 65.4586 0.443835Z" fill="#1E1E1E"/>
<path d="M434.598 152.883C436.044 152.867 437.49 152.856 438.936 152.848C439.427 152.845 439.918 152.84 440.41 152.835C441.118 152.827 441.827 152.823 442.536 152.82C442.753 152.817 442.971 152.813 443.195 152.81C444.88 152.81 446.242 153.076 447.671 153.987C448.724 155.106 449.165 156.224 449.229 157.755C449.183 158.886 448.939 159.518 448.253 160.42C447.671 160.918 447.671 160.918 447.17 161.281C447.062 161.494 447.062 161.494 446.953 161.712C447.181 161.772 447.181 161.772 447.413 161.833C448.484 162.365 449.351 163.392 449.771 164.511C449.818 165.086 449.841 165.632 449.838 166.207C449.842 166.356 449.845 166.506 449.849 166.66C449.85 167.982 449.489 168.821 448.633 169.813C447.377 170.89 446.202 171.43 444.539 171.426C444.318 171.426 444.097 171.426 443.869 171.426C443.631 171.425 443.394 171.424 443.149 171.423C442.905 171.422 442.661 171.422 442.41 171.422C441.63 171.42 440.85 171.418 440.071 171.415C439.542 171.414 439.014 171.413 438.485 171.412C437.189 171.41 435.893 171.406 434.598 171.401C434.598 170.833 434.598 170.265 434.598 169.679C435.456 169.466 435.456 169.466 436.332 169.248C436.332 164.558 436.332 159.869 436.332 155.037C435.759 154.894 435.187 154.752 434.598 154.606C434.598 154.037 434.598 153.469 434.598 152.883ZM439.366 155.037C439.366 156.884 439.366 158.732 439.366 160.635C440.162 160.653 440.958 160.671 441.778 160.689C442.026 160.697 442.275 160.705 442.531 160.713C443.824 160.727 444.653 160.681 445.652 159.774C446.247 159.151 446.4 158.718 446.411 157.863C446.387 157.098 446.306 156.613 445.828 156.006C444.925 155.207 444.185 154.981 442.986 154.994C442.795 154.996 442.604 154.997 442.407 154.998C442.168 155.002 441.929 155.006 441.683 155.01C440.918 155.018 440.154 155.027 439.366 155.037ZM439.366 162.788C439.366 164.92 439.366 167.052 439.366 169.248C440.234 169.262 441.101 169.275 441.994 169.289C442.401 169.297 442.401 169.297 442.816 169.306C444.544 169.327 444.544 169.327 446.086 168.602C446.818 167.815 447.14 167.259 447.224 166.18C447.144 164.994 446.852 164.179 445.977 163.354C445.138 162.812 444.516 162.762 443.536 162.767C443.318 162.768 443.1 162.768 442.874 162.769C442.598 162.771 442.321 162.773 442.035 162.775C441.154 162.779 440.274 162.784 439.366 162.788Z" fill="#1E1E1E"/>
<path d="M491.822 158.482C491.93 158.588 491.93 158.588 492.039 158.697C492.111 158.342 492.182 157.987 492.256 157.62C493.043 157.62 493.83 157.62 494.64 157.62C494.655 159.584 494.667 161.548 494.674 163.511C494.677 164.423 494.682 165.335 494.689 166.247C494.696 167.128 494.7 168.009 494.702 168.89C494.703 169.225 494.706 169.56 494.709 169.895C494.73 171.961 494.71 173.568 493.516 175.331C492.083 176.723 490.512 177.051 488.553 177.055C486.958 177.031 485.6 176.848 484.453 175.708C484.667 175.069 484.882 174.429 485.103 173.77C485.403 173.877 485.702 173.983 486.011 174.093C487.525 174.545 489.15 174.659 490.69 174.26C491.206 174.023 491.206 174.023 491.42 173.518C491.684 172.505 491.906 171.597 491.822 170.54C491.725 170.615 491.627 170.691 491.527 170.768C490.166 171.725 488.866 171.963 487.212 171.777C485.613 171.443 484.568 170.6 483.656 169.3C482.347 167.101 482.379 164.131 482.976 161.698C483.531 160.006 484.438 158.589 485.97 157.62C487.961 156.709 490.157 157.172 491.822 158.482ZM486.62 160.42C485.354 162.28 485.327 164.493 485.536 166.664C485.828 167.722 486.409 168.558 487.271 169.248C488.271 169.579 489.304 169.662 490.314 169.309C491.179 168.855 491.622 168.389 492.039 167.526C492.173 166.489 492.14 165.448 492.134 164.403C492.138 164.119 492.143 163.835 492.147 163.543C492.147 163.269 492.147 162.996 492.147 162.714C492.147 162.465 492.148 162.216 492.148 161.959C492.017 161.14 491.749 160.793 491.172 160.204C489.679 159.227 487.961 159.203 486.62 160.42Z" fill="#1E1E1E"/>
<path d="M606.703 151.376C608.277 151.376 609.851 151.376 611.472 151.376C611.544 157.274 611.615 163.172 611.689 169.248C612.333 169.39 612.976 169.532 613.64 169.679C613.64 170.247 613.64 170.816 613.64 171.402C612.137 171.402 610.635 171.402 609.088 171.402C608.945 171.117 608.802 170.833 608.654 170.54C608.475 170.673 608.297 170.807 608.112 170.944C606.753 171.829 605.396 171.933 603.816 171.746C602.308 171.41 601.283 170.477 600.417 169.248C599.222 166.83 599.148 163.719 599.99 161.158C600.613 159.611 601.253 158.387 602.802 157.621C604.089 157.09 605.352 157.126 606.703 157.405C607.428 157.706 608.001 158.05 608.654 158.482C608.654 156.847 608.654 155.213 608.654 153.529C608.01 153.458 607.367 153.387 606.703 153.314C606.703 152.674 606.703 152.035 606.703 151.376ZM603.452 160.42C602.231 162.351 602.135 164.44 602.368 166.664C602.683 167.803 603.106 168.552 604.048 169.275C605.301 169.61 606.272 169.694 607.435 169.073C607.623 168.918 607.81 168.762 608.004 168.602C608.121 168.517 608.237 168.433 608.357 168.345C609.02 167.477 608.784 166.096 608.787 165.035C608.79 164.555 608.804 164.077 608.819 163.597C608.883 162.009 608.883 162.009 608.322 160.567C607.939 160.237 607.59 159.996 607.137 159.774C606.994 159.703 606.851 159.632 606.703 159.558C605.385 159.399 604.46 159.489 603.452 160.42Z" fill="#1E1E1E"/>
<path d="M594.424 158.172C595.716 159.289 595.991 160.709 596.113 162.342C596.173 163.468 596.195 164.595 596.218 165.722C596.226 166.065 596.235 166.408 596.243 166.751C596.264 167.583 596.282 168.416 596.299 169.248C596.871 169.39 597.444 169.532 598.033 169.679C598.033 170.247 598.033 170.816 598.033 171.402C595.744 171.402 593.455 171.402 591.097 171.402C591.097 170.833 591.097 170.265 591.097 169.679C591.741 169.537 592.385 169.395 593.048 169.248C593.064 168.203 593.076 167.157 593.084 166.111C593.087 165.756 593.091 165.401 593.097 165.045C593.105 164.533 593.109 164.02 593.111 163.508C593.115 163.35 593.118 163.193 593.122 163.032C593.122 161.936 592.91 161.179 592.398 160.204C591.559 159.588 590.58 159.663 589.58 159.774C588.551 160.14 588.001 160.586 587.412 161.496C587.323 162.123 587.281 162.671 587.28 163.297C587.277 163.468 587.273 163.638 587.269 163.814C587.259 164.356 587.254 164.898 587.25 165.44C587.243 165.808 587.237 166.177 587.23 166.545C587.214 167.446 587.203 168.347 587.195 169.248C587.911 169.39 588.626 169.532 589.363 169.679C589.363 170.247 589.363 170.816 589.363 171.402C587.074 171.402 584.785 171.402 582.427 171.402C582.427 170.833 582.427 170.265 582.427 169.679C583.071 169.537 583.714 169.395 584.378 169.248C584.449 166.122 584.521 162.995 584.594 159.774C583.879 159.632 583.164 159.49 582.427 159.343C582.427 158.775 582.427 158.206 582.427 157.621C583.929 157.621 585.431 157.621 586.979 157.621C587.122 158.047 587.265 158.473 587.412 158.912C587.502 158.824 587.591 158.736 587.683 158.645C589.579 156.888 592.254 156.621 594.424 158.172Z" fill="#1E1E1E"/>
<path d="M477.592 158.173C478.868 159.273 479.05 160.555 479.25 162.142C479.329 163.376 479.36 164.608 479.386 165.843C479.394 166.175 479.403 166.506 479.411 166.838C479.432 167.641 479.45 168.445 479.467 169.248C480.039 169.39 480.612 169.532 481.201 169.679C481.201 170.247 481.201 170.816 481.201 171.401C478.912 171.401 476.623 171.401 474.265 171.401C474.265 170.833 474.265 170.264 474.265 169.679C474.909 169.537 475.553 169.395 476.216 169.248C476.232 168.202 476.244 167.157 476.252 166.111C476.255 165.756 476.259 165.401 476.265 165.045C476.273 164.533 476.276 164.02 476.279 163.507C476.283 163.35 476.286 163.193 476.289 163.031C476.29 161.936 476.078 161.179 475.566 160.204C474.727 159.587 473.748 159.663 472.748 159.774C471.719 160.14 471.169 160.586 470.58 161.496C470.491 162.123 470.449 162.671 470.448 163.297C470.444 163.468 470.441 163.638 470.437 163.814C470.427 164.356 470.422 164.898 470.418 165.44C470.411 165.808 470.405 166.177 470.398 166.545C470.382 167.446 470.371 168.347 470.363 169.248C471.079 169.39 471.794 169.532 472.531 169.679C472.531 170.247 472.531 170.816 472.531 171.401C470.242 171.401 467.953 171.401 465.595 171.401C465.595 170.833 465.595 170.264 465.595 169.679C466.31 169.537 467.025 169.395 467.762 169.248C467.762 166.122 467.762 162.995 467.762 159.774C467.047 159.632 466.332 159.489 465.595 159.343C465.595 158.775 465.595 158.206 465.595 157.62C467.097 157.62 468.599 157.62 470.147 157.62C470.29 158.047 470.433 158.473 470.58 158.912C470.67 158.824 470.759 158.736 470.851 158.645C472.746 156.888 475.424 156.619 477.592 158.173Z" fill="#1E1E1E"/>
<path d="M633.798 158.267C634.732 159.073 635.251 160.066 635.352 161.298C635.365 161.819 635.364 162.339 635.358 162.861C635.357 163.05 635.357 163.24 635.356 163.435C635.353 164.036 635.348 164.637 635.343 165.238C635.34 165.647 635.338 166.056 635.337 166.465C635.332 167.465 635.324 168.464 635.315 169.464C635.673 169.535 636.031 169.606 636.399 169.679C636.399 170.247 636.399 170.816 636.399 171.402C635.183 171.402 633.967 171.402 632.714 171.402C632.607 170.762 632.607 170.762 632.498 170.11C632.374 170.198 632.251 170.286 632.124 170.377C630.472 171.523 629.227 171.96 627.205 171.718C625.783 171.461 625.071 170.805 624.261 169.679C623.871 168.503 623.819 167.126 624.21 165.949C624.894 164.691 625.964 164.113 627.295 163.65C628.407 163.397 629.495 163.409 630.628 163.421C630.808 163.422 630.988 163.423 631.174 163.424C631.615 163.426 632.056 163.43 632.498 163.434C632.462 161.838 632.462 161.838 631.861 160.393C631.136 159.739 630.684 159.739 629.72 159.734C629.383 159.729 629.383 159.729 629.039 159.724C628.356 159.776 627.894 159.875 627.295 160.205C626.996 160.966 626.996 160.966 626.862 161.712C626.147 161.712 625.431 161.712 624.694 161.712C624.694 160.717 624.694 159.722 624.694 158.697C627.507 157.159 630.908 156.413 633.798 158.267ZM627.295 166.234C626.747 167.05 626.729 167.644 626.862 168.602C627.255 169.178 627.486 169.24 628.162 169.464C629.688 169.58 630.644 169.137 631.942 168.387C632.682 167.527 632.604 166.949 632.543 165.853C632.528 165.694 632.513 165.536 632.498 165.372C629.758 165.196 629.758 165.196 627.295 166.234Z" fill="#1E1E1E"/>
<path d="M507.429 158.266C508.263 159.039 508.886 159.919 508.983 161.071C508.996 161.605 508.995 162.137 508.989 162.671C508.988 162.866 508.987 163.06 508.987 163.261C508.984 163.879 508.979 164.498 508.973 165.116C508.971 165.537 508.969 165.957 508.967 166.378C508.963 167.406 508.955 168.435 508.946 169.463C509.304 169.534 509.661 169.606 510.03 169.679C510.03 170.247 510.03 170.816 510.03 171.401C508.885 171.401 507.741 171.401 506.562 171.401C506.419 170.975 506.276 170.549 506.128 170.109C506.023 170.198 505.918 170.286 505.81 170.377C504.385 171.515 503.296 171.899 501.468 171.819C500.294 171.681 499.432 171.316 498.542 170.54C497.645 169.362 497.541 168.101 497.675 166.664C498.07 165.487 498.799 164.731 499.842 164.08C501.861 163.144 504.175 163.374 506.345 163.434C506.295 163.021 506.24 162.608 506.183 162.196C506.152 161.966 506.122 161.736 506.091 161.5C505.886 160.757 505.639 160.471 505.045 159.989C503.953 159.447 502.337 159.687 501.197 159.989C501.036 160.06 500.875 160.131 500.709 160.204C500.638 160.702 500.566 161.199 500.493 161.712C499.777 161.712 499.062 161.712 498.325 161.712C498.224 160.759 498.174 159.861 498.325 158.912C498.811 158.327 499.351 158.092 500.059 157.836C500.278 157.747 500.497 157.658 500.723 157.567C502.898 157.015 505.54 156.861 507.429 158.266ZM500.845 166.516C500.417 167.219 500.354 167.579 500.493 168.387C500.897 168.883 501.22 169.179 501.793 169.463C503.334 169.586 504.611 169.25 505.803 168.266C506.375 167.659 506.424 167.188 506.426 166.368C506.406 166.036 506.381 165.703 506.345 165.372C505.758 165.355 505.171 165.342 504.584 165.332C504.337 165.324 504.337 165.324 504.084 165.315C502.74 165.298 501.836 165.557 500.845 166.516Z" fill="#1E1E1E"/>
<path d="M519.566 157.621C520.997 157.621 522.428 157.621 523.902 157.621C523.91 158.267 523.918 158.912 523.926 159.578C523.936 160.209 523.947 160.839 523.958 161.47C523.966 161.906 523.972 162.342 523.977 162.778C523.984 163.407 523.995 164.036 524.007 164.665C524.009 164.858 524.01 165.05 524.012 165.248C524.04 166.476 524.144 167.731 524.769 168.818C525.674 169.378 526.548 169.372 527.586 169.248C528.313 168.951 528.313 168.951 528.887 168.602C529.03 168.602 529.173 168.602 529.32 168.602C529.799 167.65 529.811 166.766 529.796 165.725C529.795 165.469 529.795 165.469 529.794 165.208C529.792 164.666 529.787 164.124 529.781 163.583C529.779 163.214 529.777 162.845 529.775 162.477C529.77 161.576 529.763 160.675 529.754 159.774C529.182 159.632 528.61 159.49 528.02 159.343C528.02 158.775 528.02 158.206 528.02 157.621C529.594 157.621 531.167 157.621 532.789 157.621C532.86 161.458 532.932 165.295 533.005 169.248C533.435 169.39 533.864 169.533 534.306 169.679C534.306 170.247 534.306 170.816 534.306 171.402C532.947 171.402 531.588 171.402 530.188 171.402C530.08 170.762 530.08 170.762 529.971 170.11C529.796 170.274 529.622 170.438 529.442 170.608C528.255 171.575 527.026 171.904 525.5 171.819C524.157 171.645 523.3 171.234 522.33 170.271C521.438 168.879 521.203 167.612 521.19 165.998C521.186 165.819 521.182 165.64 521.178 165.455C521.166 164.889 521.159 164.323 521.151 163.757C521.144 163.371 521.137 162.985 521.129 162.598C521.111 161.657 521.096 160.715 521.084 159.774C520.583 159.632 520.082 159.49 519.566 159.343C519.566 158.775 519.566 158.206 519.566 157.621Z" fill="#1E1E1E"/>
<path d="M546.228 157.621C547.658 157.621 549.089 157.621 550.563 157.621C550.573 158.235 550.584 158.85 550.595 159.484C550.607 160.085 550.619 160.685 550.631 161.286C550.64 161.701 550.647 162.116 550.654 162.531C550.664 163.13 550.677 163.729 550.69 164.329C550.692 164.512 550.695 164.695 550.697 164.883C550.733 166.329 550.969 167.661 551.43 169.033C552.483 169.43 553.873 169.465 554.927 169.078C555.607 168.708 555.983 168.385 556.415 167.741C556.452 167.132 556.465 166.544 556.457 165.935C556.457 165.671 556.457 165.671 556.456 165.402C556.453 164.84 556.448 164.279 556.442 163.717C556.44 163.336 556.438 162.955 556.436 162.574C556.432 161.641 556.424 160.707 556.415 159.774C555.914 159.632 555.414 159.49 554.898 159.343C554.898 158.775 554.898 158.206 554.898 157.621C556.4 157.621 557.902 157.621 559.45 157.621C559.521 161.458 559.593 165.295 559.666 169.248C560.096 169.39 560.525 169.533 560.967 169.679C560.967 170.247 560.967 170.816 560.967 171.402C559.608 171.402 558.249 171.402 556.849 171.402C556.741 170.762 556.741 170.762 556.632 170.11C556.458 170.274 556.283 170.438 556.104 170.608C554.924 171.569 553.692 171.903 552.175 171.832C550.684 171.639 549.699 171.066 548.747 169.921C548.048 168.585 547.894 167.327 547.872 165.851C547.868 165.676 547.863 165.502 547.859 165.322C547.846 164.769 547.836 164.216 547.826 163.663C547.818 163.286 547.809 162.909 547.801 162.532C547.78 161.613 547.762 160.693 547.745 159.774C547.244 159.632 546.743 159.49 546.228 159.343C546.228 158.775 546.228 158.206 546.228 157.621Z" fill="#1E1E1E"/>
<path d="M461.693 158.266C462.72 159.182 463.315 160.155 463.644 161.496C463.644 162.704 463.644 163.912 463.644 165.157C460.711 165.157 457.778 165.157 454.757 165.157C455.223 167.391 455.223 167.391 456.559 168.979C457.961 169.627 459.163 169.454 460.609 169.033C461.214 168.778 461.767 168.489 462.343 168.172C462.701 168.669 463.059 169.166 463.427 169.679C463.049 170.577 462.632 170.818 461.764 171.211C459.722 171.983 457.524 172.063 455.461 171.294C454.053 170.592 452.96 169.356 452.386 167.902C451.66 165.357 451.609 162.717 452.861 160.333C453.72 158.936 454.834 157.813 456.437 157.311C458.224 156.972 460.208 157.177 461.693 158.266ZM455.841 160.42C455.257 161.301 454.974 161.938 454.974 163.004C456.976 163.004 458.979 163.004 461.043 163.004C460.856 161.28 460.856 161.28 459.959 159.989C458.573 159.146 457.018 159.332 455.841 160.42Z" fill="#1E1E1E"/>
<path d="M574.189 152.883C576.478 152.883 578.767 152.883 581.126 152.883C581.126 153.452 581.126 154.02 581.126 154.606C580.482 154.748 579.838 154.89 579.175 155.037C579.175 159.726 579.175 164.416 579.175 169.248C580.141 169.461 580.141 169.461 581.126 169.679C581.126 170.247 581.126 170.816 581.126 171.402C578.837 171.402 576.548 171.402 574.189 171.402C574.189 170.833 574.189 170.265 574.189 169.679C575.048 169.466 575.048 169.466 575.924 169.248C575.924 164.558 575.924 159.869 575.924 155.037C575.351 154.894 574.779 154.752 574.189 154.606C574.189 154.037 574.189 153.469 574.189 152.883Z" fill="#1E1E1E"/>
<path d="M511.547 151.376C513.121 151.376 514.694 151.376 516.316 151.376C516.316 157.274 516.316 163.172 516.316 169.248C517.031 169.39 517.746 169.532 518.483 169.679C518.483 170.247 518.483 170.816 518.483 171.402C516.194 171.402 513.905 171.402 511.547 171.402C511.547 170.833 511.547 170.265 511.547 169.679C512.62 169.466 512.62 169.466 513.714 169.248C513.643 164.132 513.571 159.016 513.498 153.745C512.532 153.531 512.532 153.531 511.547 153.314C511.547 152.674 511.547 152.035 511.547 151.376Z" fill="#1E1E1E"/>
<path d="M545.361 157.405C545.33 157.795 545.298 158.186 545.266 158.576C545.248 158.793 545.231 159.011 545.212 159.234C545.144 159.774 545.144 159.774 544.927 159.989C544.512 160.017 544.096 160.039 543.681 160.056C542.613 160.134 541.978 160.233 541.242 161.066C540.899 161.747 540.973 162.485 540.957 163.234C540.952 163.405 540.948 163.577 540.943 163.754C540.929 164.302 540.916 164.851 540.904 165.399C540.894 165.771 540.885 166.142 540.875 166.514C540.852 167.425 540.83 168.337 540.809 169.248C541.524 169.39 542.239 169.532 542.976 169.679C542.976 170.247 542.976 170.816 542.976 171.401C540.687 171.401 538.398 171.401 536.04 171.401C536.04 170.833 536.04 170.264 536.04 169.679C536.755 169.537 537.471 169.394 538.208 169.248C538.208 166.122 538.208 162.995 538.208 159.774C537.492 159.632 536.777 159.489 536.04 159.343C536.04 158.774 536.04 158.206 536.04 157.62C537.542 157.62 539.044 157.62 540.592 157.62C540.735 157.976 540.878 158.331 541.025 158.697C541.307 158.444 541.307 158.444 541.594 158.186C542.838 157.17 543.831 157.143 545.361 157.405Z" fill="#1E1E1E"/>
<path d="M615.156 157.621C616.801 157.621 618.447 157.621 620.142 157.621C620.213 161.458 620.285 165.295 620.358 169.248C620.931 169.39 621.503 169.533 622.092 169.679C622.092 170.247 622.092 170.816 622.092 171.402C619.804 171.402 617.515 171.402 615.156 171.402C615.156 170.833 615.156 170.265 615.156 169.679C615.8 169.537 616.444 169.395 617.107 169.248C617.107 166.122 617.107 162.995 617.107 159.774C616.141 159.561 616.141 159.561 615.156 159.343C615.156 158.775 615.156 158.206 615.156 157.621Z" fill="#1E1E1E"/>
<path d="M563.135 168.387C564.064 168.387 564.994 168.387 565.952 168.387C566.013 170.751 565.838 172.651 564.435 174.631C563.825 175.183 563.825 175.183 563.351 175.493C562.851 175.137 562.35 174.782 561.834 174.416C561.894 174.289 561.954 174.161 562.016 174.03C562.134 173.775 562.134 173.775 562.254 173.514C562.371 173.263 562.371 173.263 562.49 173.007C562.904 171.968 562.967 170.936 563.04 169.827C563.058 169.557 563.076 169.287 563.095 169.008C563.108 168.803 563.121 168.598 563.135 168.387Z" fill="#1E1E1E"/>
<path d="M617.324 151.376C618.254 151.376 619.184 151.376 620.142 151.376C620.142 152.3 620.142 153.223 620.142 154.175C619.212 154.175 618.282 154.175 617.324 154.175C617.324 153.251 617.324 152.328 617.324 151.376Z" fill="#1E1E1E"/>
</g>
<defs>
<clipPath id="clip0_868_1621">
<rect width="639" height="177" fill="white"/>
</clipPath>
</defs>
</svg>
