<svg width="341" height="36" viewBox="0 0 341 36" fill="none" xmlns="http://www.w3.org/2000/svg">
<g clip-path="url(#clip0_892_1616)">
<path d="M43.046 13.2171C43.046 19.08 39.9938 23.4 35.0472 25.3029L41.8356 36H30.6795L24.733 26.3829H9.47222V36H0V0H28.9429C37.31 0 43.046 5.19429 43.046 13.2171ZM9.47222 7.76572V18.6171H26.3117C29.1534 18.6171 33.5738 18.6171 33.5738 13.2171C33.5738 7.76572 29.1534 7.76572 26.3117 7.76572H9.47222Z" fill="#0055FF"/>
<path d="M85.0894 7.35429H55.6203V14.6571H85.0894V21.3429H55.6203V28.6457H85.0894V36H46.1482V0H85.0894V7.35429Z" fill="#0055FF"/>
<path d="M127.555 0H138.185L119.241 36H106.295L87.3508 0H97.9808L112.768 29.16L127.555 0Z" fill="#0055FF"/>
<path d="M165.125 36L161.178 28.3371L157.653 21.4457L150.689 28.3371H139.129L135.182 36H124.763L143.76 0H156.548L175.597 36H165.125ZM142.655 21.4457H157.653L150.18 6.84L142.655 21.4457Z" fill="#0055FF"/>
<path d="M237.227 13.2171C237.227 19.08 234.174 23.4 229.228 25.3029L236.016 36H224.86L218.914 26.3829H203.653V36H194.181V0H223.124C231.491 0 237.227 5.19429 237.227 13.2171ZM203.653 7.76572V18.6171H220.492C223.334 18.6171 227.754 18.6171 227.754 13.2171C227.754 7.76572 223.334 7.76572 220.492 7.76572H203.653Z" fill="#0055FF"/>
<path d="M249.801 0V5.65714V14.4V36H240.329V14.4H249.801V5.65714L240.329 9.51429V0H249.801Z" fill="#0055FF"/>
<path d="M292.94 7.76572H263.471V16.92H289.783V24.7371H263.471V36H253.999V0H292.94V7.76572Z" fill="#0055FF"/>
<path d="M340.817 0V7.76572H322.925V36H313.453V7.76572H302.751L299.593 4.37143L295.561 0H340.817Z" fill="#0055FF"/>
</g>
<defs>
<clipPath id="clip0_892_1616">
<rect width="341" height="36" fill="white"/>
</clipPath>
</defs>
</svg>
